<?xml version="1.0" encoding="UTF-8"?>
<svg id="Layer_2" data-name="Layer 2" xmlns="http://www.w3.org/2000/svg" xmlns:xlink="http://www.w3.org/1999/xlink" viewBox="0 0 1916 1084">
  <defs>
    <style>
      .cls-1 {
        fill: #7a6283;
      }

      .cls-1, .cls-2, .cls-3, .cls-4, .cls-5, .cls-6, .cls-7, .cls-8, .cls-9, .cls-10, .cls-11, .cls-12, .cls-13, .cls-14, .cls-15, .cls-16, .cls-17, .cls-18, .cls-19, .cls-20, .cls-21, .cls-22, .cls-23, .cls-24, .cls-25, .cls-26, .cls-27, .cls-28, .cls-29, .cls-30, .cls-31, .cls-32, .cls-33, .cls-34, .cls-35, .cls-36, .cls-37, .cls-38, .cls-39, .cls-40, .cls-41, .cls-42, .cls-43, .cls-44, .cls-45, .cls-46, .cls-47, .cls-48, .cls-49, .cls-50, .cls-51, .cls-52, .cls-53, .cls-54, .cls-55, .cls-56, .cls-57, .cls-58, .cls-59, .cls-60, .cls-61, .cls-62, .cls-63, .cls-64, .cls-65, .cls-66, .cls-67, .cls-68, .cls-69, .cls-70, .cls-71, .cls-72, .cls-73, .cls-74, .cls-75, .cls-76, .cls-77, .cls-78, .cls-79, .cls-80, .cls-81, .cls-82, .cls-83, .cls-84, .cls-85, .cls-86, .cls-87, .cls-88, .cls-89, .cls-90, .cls-91, .cls-92, .cls-93, .cls-94, .cls-95, .cls-96, .cls-97, .cls-98, .cls-99, .cls-100, .cls-101 {
        fill-rule: evenodd;
      }

      .cls-2 {
        fill: #b9bac7;
      }

      .cls-3 {
        fill: #bdbdc7;
      }

      .cls-102 {
        fill: url(#linear-gradient-2);
      }

      .cls-4 {
        fill: #8e7ea1;
      }

      .cls-5 {
        fill: #f4edf3;
      }

      .cls-6 {
        fill: #766384;
      }

      .cls-103 {
        fill: #fff;
      }

      .cls-7 {
        fill: #7e6786;
      }

      .cls-8 {
        fill: #b9bbc6;
      }

      .cls-9 {
        fill: #f7f1f5;
      }

      .cls-10 {
        fill: #bbbdc6;
      }

      .cls-11, .cls-104 {
        fill: #b9bbc7;
      }

      .cls-12 {
        fill: #fafaf8;
      }

      .cls-13 {
        fill: #bab4c9;
      }

      .cls-14 {
        fill: #a19dac;
      }

      .cls-15 {
        fill: #ada4b9;
      }

      .cls-16 {
        fill: #87779c;
      }

      .cls-17 {
        fill: #aa9fb7;
      }

      .cls-18 {
        fill: #9e90ad;
      }

      .cls-19 {
        fill: #f7f3f6;
      }

      .cls-20 {
        fill: #c2b9ca;
      }

      .cls-21 {
        fill: #8b7a9e;
      }

      .cls-22 {
        fill: #f4eff5;
      }

      .cls-23 {
        fill: #9c8dac;
      }

      .cls-24 {
        fill: #735582;
      }

      .cls-25 {
        fill: #70577f;
      }

      .cls-26 {
        fill: #fdf7fd;
      }

      .cls-27 {
        fill: #7e6986;
      }

      .cls-28 {
        fill: #bcbdc6;
      }

      .cls-29 {
        fill: #7b6689;
      }

      .cls-30 {
        fill: #8c7992;
      }

      .cls-31 {
        fill: #95899d;
      }

      .cls-32 {
        fill: #745783;
      }

      .cls-33 {
        fill: #bbbcc6;
      }

      .cls-34 {
        fill: #f9f3f9;
      }

      .cls-35 {
        fill: #bcbdc7;
      }

      .cls-36 {
        fill: #bcb3c6;
      }

      .cls-37 {
        fill: #a89cb5;
      }

      .cls-38 {
        fill: #f5eef5;
      }

      .cls-39 {
        fill: #b9b9c6;
      }

      .cls-40 {
        fill: #9780aa;
      }

      .cls-41 {
        fill: #a598b2;
      }

      .cls-42 {
        fill: #f4edf4;
      }

      .cls-43 {
        fill: #bdb8c9;
      }

      .cls-44 {
        fill: #9783a7;
      }

      .cls-45 {
        fill: #5b3e6b;
      }

      .cls-46 {
        fill: #f7f7f6;
      }

      .cls-47 {
        fill: #fdfbf8;
      }

      .cls-48 {
        fill: #91839e;
      }

      .cls-49 {
        fill: #9781aa;
      }

      .cls-50 {
        fill: #fef9fc;
      }

      .cls-51 {
        fill: #dcd0de;
      }

      .cls-52 {
        fill: #7c6585;
      }

      .cls-53 {
        fill: #fbf9f8;
      }

      .cls-54 {
        fill: #beb7cc;
      }

      .cls-55 {
        fill: #9687a7;
      }

      .cls-56 {
        fill: #b8b6c5;
      }

      .cls-57 {
        fill: #faf7f7;
      }

      .cls-58 {
        fill: #9182a3;
      }

      .cls-59 {
        fill: #998caa;
      }

      .cls-60 {
        fill: #babcc7;
      }

      .cls-61 {
        fill: #857499;
      }

      .cls-62 {
        fill: #b3aabf;
      }

      .cls-63 {
        fill: #f9f1f9;
      }

      .cls-105, .cls-97 {
        fill: #745483;
      }

      .cls-64 {
        fill: #b9b8c7;
      }

      .cls-65 {
        fill: #babbc7;
      }

      .cls-106 {
        fill: #fdfcf8;
      }

      .cls-66 {
        fill: #bcbec7;
      }

      .cls-67 {
        fill: #a193af;
      }

      .cls-68 {
        fill: #efe7f0;
      }

      .cls-69 {
        fill: #c9c2d0;
      }

      .cls-70 {
        fill: #745c82;
      }

      .cls-71 {
        fill: #b9b2c6;
      }

      .cls-72 {
        fill: #9181a3;
      }

      .cls-73 {
        fill: #b8b9c6;
      }

      .cls-74 {
        fill: #efe7ee;
      }

      .cls-75 {
        fill: #b9b5c6;
      }

      .cls-76 {
        fill: #b9bac6;
      }

      .cls-77 {
        fill: #bebfc8;
      }

      .cls-78 {
        fill: #88779c;
      }

      .cls-79 {
        fill: #745482;
      }

      .cls-80 {
        fill: #bcbdc5;
      }

      .cls-81 {
        fill: #b9b0c3;
      }

      .cls-82 {
        fill: #f5edf6;
      }

      .cls-83 {
        fill: #96899d;
      }

      .cls-84 {
        fill: #fcfbf8;
      }

      .cls-85 {
        fill: #c0b7c8;
      }

      .cls-86 {
        fill: #735482;
      }

      .cls-87 {
        fill: #babcc6;
      }

      .cls-88 {
        fill: #babbc6;
      }

      .cls-107 {
        fill: #9288a0;
      }

      .cls-89 {
        fill: #bbbcc5;
      }

      .cls-90 {
        fill: #f8f2f7;
      }

      .cls-91 {
        fill: #9485a5;
      }

      .cls-108 {
        fill: url(#linear-gradient);
      }

      .cls-92 {
        fill: #f6f1f6;
      }

      .cls-93 {
        fill: #b7b6c3;
      }

      .cls-94 {
        fill: #8c809a;
      }

      .cls-95 {
        fill: #c4bdcd;
      }

      .cls-96 {
        fill: #735682;
      }

      .cls-98 {
        fill: #735e7d;
      }

      .cls-99 {
        fill: #fdf6fd;
      }

      .cls-100 {
        fill: #bdbec7;
      }

      .cls-101 {
        fill: #b0a5bc;
      }
    </style>
    <linearGradient id="linear-gradient" x1="296.3" y1="-1016.41" x2="240.47" y2="-1021.86" gradientTransform="translate(-.69 -1193.16) scale(1.69 -1.69)" gradientUnits="userSpaceOnUse">
      <stop offset="0" stop-color="#695e7c"/>
      <stop offset="1" stop-color="#b2b0b7"/>
    </linearGradient>
    <linearGradient id="linear-gradient-2" x1="207.1" y1="-1011.43" x2="255.03" y2="-1027.22" gradientTransform="translate(-.69 -1193.16) scale(1.69 -1.69)" gradientUnits="userSpaceOnUse">
      <stop offset="0" stop-color="#7d788c"/>
      <stop offset="1" stop-color="#9991a4"/>
    </linearGradient>
  </defs>
  <g id="Layer_2-2" data-name="Layer 2">
    <path class="cls-84" d="M9.55,322.81H832v462.79H9.55V322.81Z"/>
    <path class="cls-84" d="M0,0H1916V1084H0V0Z"/>
    <path class="cls-100" d="M249.96,391.14c2.97-.18,3.6,.93,1.9,3.32-2.53,.05-3.16-1.06-1.9-3.32Z"/>
    <path class="cls-8" d="M472.02,416.45c3.9-.68,5.74,.9,5.54,4.74-.95,2.42-2.69,3.21-5.22,2.37-1.71-1.36-2.29-3.1-1.74-5.22,.67-.51,1.15-1.14,1.42-1.9Z"/>
    <path class="cls-77" d="M227.81,419.29c2.57,.54,2.99,1.76,1.27,3.64-2.02,.2-2.81-.7-2.37-2.69,.36-.36,.73-.68,1.11-.95Z"/>
    <path class="cls-8" d="M257.55,426.89c14.8-1.53,26.45,3.74,34.95,15.82,6.81,13.31,5.86,26.07-2.85,38.28-8.74,10.45-19.86,14.41-33.37,11.86-11.33-3.84-19.29-11.28-23.88-22.3-3.67-13.77-.56-25.74,9.33-35.9,4.55-4.06,9.82-6.65,15.82-7.75Z"/>
    <path class="cls-87" d="M336.95,434.79c3.84,0,5.48,1.89,4.9,5.69-1.09,1.67-2.61,2.61-4.59,2.85-3.16-1.19-4.16-3.41-3.01-6.64,.73-.92,1.63-1.55,2.69-1.9Z"/>
    <path class="cls-28" d="M212.31,464.85c2.85-.53,3.59,.48,2.21,3.01-2.28,.21-3.01-.79-2.21-3.01Z"/>
    <path class="cls-60" d="M351.81,464.53c4.74-.27,7,1.94,6.8,6.64-1.95,3.48-4.74,4.37-8.38,2.69-2.36-2.41-2.52-4.99-.47-7.75,.74-.48,1.43-1.01,2.06-1.58Z"/>
    <path class="cls-12" d="M352.13,468.64c.87-.1,1.71,0,2.53,.32,.37,.54,.37,1.06,0,1.58-2.24,.92-3.08,.28-2.53-1.9Z"/>
    <path class="cls-10" d="M216.11,478.45c2.59-.3,3.22,.7,1.9,3.01-2.27,.06-2.9-.95-1.9-3.01Z"/>
    <path class="cls-87" d="M484.04,490.47c3.76,.13,5.19,2.03,4.27,5.69-.37,.58-.84,1.05-1.42,1.42-4.31,1.06-6.05-.57-5.22-4.9,.55-1.03,1.34-1.76,2.37-2.21Z"/>
    <path class="cls-87" d="M339.79,499.64c4.69,.31,6.22,2.63,4.59,6.96-2.67,2.59-5.2,2.49-7.59-.32-1.05-3.17-.05-5.38,3.01-6.64Z"/>
    <path class="cls-32" d="M220.54,507.55c3.34-.56,5.81,.6,7.43,3.48,.26,5.01-2.11,7.17-7.12,6.48-2.77-1.44-3.77-3.7-3.01-6.8,.63-1.31,1.52-2.36,2.69-3.16Z"/>
    <path class="cls-56" d="M222.75,511.98h3.16c.26,2.22-.69,3.01-2.85,2.37-1.15-.66-1.26-1.45-.32-2.37Z"/>
    <path class="cls-46" d="M260.08,522.1c1.06-.05,2.11,0,3.16,.16,.35,.65,.4,1.34,.16,2.06-.97,.35-1.97,.41-3.01,.16-.3-.75-.4-1.54-.32-2.37Z"/>
    <path class="cls-50" d="M357.51,523.05h-30.05c-3.8-.31-7.49,.11-11.07,1.27,0-.32,.15-.53,.47-.63,1.45-.34,2.82-.86,4.11-1.58,3.78,.22,7.58,.43,11.39,.63,8.27-.36,16.54-.42,24.83-.16,.18,.12,.28,.28,.32,.47Z"/>
    <path class="cls-90" d="M360.99,516.09c-3.08,11.37-2.77,22.65,.95,33.85-.45-.61-.93-1.24-1.42-1.9-.03-1.01-.24-1.96-.63-2.85-.59-4.32-1.17-8.65-1.74-12.97,.05,.67-.37,.99-1.27,.95,.28-1.67,.39-3.35,.32-5.06,.31-1.63,.42-3.31,.32-5.06,.46-.27,.88-.27,1.27,0,.36-.94,.36-1.89,0-2.85,.09-.73,.36-.73,.79,0,.11-1.04,.37-2.04,.79-3.01-.04-.39-.15-.76-.32-1.11,.23-.19,.55-.19,.95,0Z"/>
    <path class="cls-30" d="M327.46,523.05h30.05c.1,1.75,0,3.44-.32,5.06v-4.74c-9.96,.11-19.88,0-29.73-.32Z"/>
    <path class="cls-68" d="M527.06,524.63c-2.8-.1-5.54,0-8.22,.32h-22.14c-2.37-.31-4.79-.42-7.28-.32-.1,.91,0,1.76,.32,2.53-.05,2.22,0,4.43,.16,6.64,.62,.19,1.2,.4,1.74,.63-.49,0-.97,.11-1.42,.32-.52-.1-.84-.42-.95-.95-.23,.3-.49,.35-.79,.16,.85-.84,1.12-1.84,.79-3.01-.28,.38-.55,.38-.79,0,.39-.57,.6-1.21,.63-1.9-.38-1.55-.38-3.08,0-4.59,12.71-.26,25.36-.21,37.96,.16Z"/>
    <path class="cls-7" d="M496.69,524.95h-6.96v2.21c-.31-.77-.41-1.62-.32-2.53,2.48-.1,4.91,0,7.28,.32Z"/>
    <g>
      <path class="cls-104" d="M670.2,573.54c.49-.09,.54-.04,.99,.17l.11,3.9c-.67,.13-.7,.02-1.26-.33l.16-3.74Z"/>
      <path class="cls-104" d="M658.66,571.84l.93-.14c.66,.78,.31,2.49,.27,3.54-.63,.19-.75,.16-1.39,0l.19-3.4Z"/>
      <path class="cls-104" d="M660.69,571.84l.77-.08,.64,.59-.3,3.06-.56,.25-.61-.24c-.18-1.19-.04-2.38,.06-3.57Z"/>
      <path class="cls-104" d="M664.39,572.18l.8-.12,.56,.46c.02,1.21-.04,2.34-.22,3.54-.33,.14-.67,.08-1.02,.07-.44-1.08-.17-2.77-.12-3.95Z"/>
      <path class="cls-104" d="M666.5,572.18c.32,.03,.66,.22,.96,.34,.03,1.4,.05,2.73-.23,4.11-.47,.03-.77-.17-1.18-.37-.02-1.26-.26-3.02,.45-4.08Z"/>
      <path class="cls-104" d="M672,574.22c.78,.04,.86,.2,1.45,.68l-.1,3.43-1.04-.03c-.74-1.22-.47-2.72-.31-4.08Z"/>
      <path class="cls-104" d="M637.32,571.84l.72-.1,.5,.44c.03,1.63,.16,3.3-.18,4.9l-.85,.26-.36-.41c-.03-1.72-.07-3.39,.17-5.1Z"/>
      <path class="cls-105" d="M656.76,524.13c.36-2.32,.58-4.93,1.3-7.15l.58-.15,.48,.47c-.23,2.18-.68,4.52-.55,6.71l-1.82,.12Z"/>
      <path class="cls-104" d="M654.95,567.09l.37-.07,.56,.41c0,2.57,.37,5.04,.13,7.6l-.68,.28-.56-.39c-.03-2.55-.25-5.3,.18-7.82Z"/>
      <path class="cls-104" d="M652.98,567.09l.81-.16,.48,.33c.03,2.15,.58,6.15-.29,8.04-.4-.05-.65-.19-1-.39v-7.82Z"/>
      <path class="cls-104" d="M643.49,566.75l.95-.08,.34,.42c0,2.21,.56,7-.45,8.84-.48,0-.6-.12-1.02-.34-.05-2.56-.61-6.46,.18-8.84Z"/>
      <path class="cls-104" d="M649.38,566.75c.45-.03,.66,.04,1.09,.15,.68,2.12,.1,6.05-.07,8.35-.74,.1-.78,.02-1.4-.34-.05-1.9-.7-6.71,.38-8.16Z"/>
      <path class="cls-107" d="M629.19,554.51c.93-4.06-.49-8.85,.33-13l.68-.14c.66,.99,.26,4.84,.24,6.17l-.08,8.55c-.27,.45-.3,.76-.83,.9l-.33-2.47Z"/>
      <path class="cls-105" d="M530.9,449.28l.02-7.76,.6-.45,.68,.28v17.92s-.56-.39-.56-.39c-.86-.91-.64-7.79-.74-9.6Z"/>
      <path class="cls-104" d="M640.51,566.66h1.1s1.1,.19,1.1,.19c.78,2.21,.08,6.63,.02,9.08-.41,.3-.62,.41-1.13,.45l-1.01,.11-.73,.27-.57-.31c-.02-1.17-.3-2.97-.07-4.08,.07-.33,.53-.69,.6-1.02,.26-1.12,.04-2.89,.06-4.08l.63-.6Z"/>
      <path class="cls-104" d="M630.36,556.08c.38,2.41,.06,5.34,.05,7.79l-.11,15.45-.95,.43-.36-.43v-15.84c0-2.94-.21-6.05,.19-8.97l.33,2.47c.53-.14,.57-.45,.83-.9Z"/>
      <path class="cls-104" d="M625.05,555.19c.62-.1,.61-.09,1.15,.23l-.07,25.27c-.21,.4-.47,.52-.85,.75l-.4-.43,.16-25.83Z"/>
      <path class="cls-104" d="M644.05,525.81l-.26-.1c-.48-2.06-.05-4.16-.62-6.2-.21-.76-.15-2.08,.28-2.72l.82,.17,.19,.85c.54,1.4,.28,3.14,.8,4.48,.26,.69,.44,1.4,.63,2.11,3.28,.01,7.75,.6,10.86-.28l1.82-.12,.63,1.11c-.27,.54-.55,1.07-.76,1.63-.14-.38-.31-.57-.56-.88l-13.84-.06Z"/>
      <path class="cls-104" d="M627.02,555.19l1.14-.11c.65,1.47,.33,22.7,0,25.07l-.85,.4-.36-.38,.06-24.98Z"/>
      <path class="cls-104" d="M646.41,566.23c-.03-2.82-.5-6.47,.1-9.18l.67-.27,.62,.66,.13,6.84c0,.43-.14,1.64,.01,1.97,.16,.35,.77,.67,.9,1.02,.13,.35-.01,1.51-.02,1.93l-.04,5.72-.75,.52-.61-.18c-.2-1.79,.34-5.63-.59-6.97l-.14,6.97-.7,.45-.62-.28-.13-8.33c.38-.35,.71-.6,1.16-.86Z"/>
      <path class="cls-104" d="M622.91,546.36l.62-.06,.4,.4,.16,35.17-.86,.46-.31-.29-.11-22.82c-.03-4.22-.34-8.67,.1-12.86Z"/>
      <path class="cls-104" d="M634.23,555.15l.57-.05h1.31c.5,.91,.31,2.05,.31,3.06l-.06,6.5,.08,12.62-.59,.58c-.57,.2-1.05,.33-1.65,.38l.03-23.07Z"/>
      <path class="cls-106" d="M634.23,555.15l.57-.05,.36,22.31,.7,.44c-.57,.2-1.05,.33-1.65,.38l.03-23.07Z"/>
      <path class="cls-104" d="M620.09,583.57l-.91,.53-.35-.36-.07-42.79c0-1.46-.39-8.94-.02-9.72,.1-.21,.28-.38,.42-.56l.54,.35,.18,15.49,.21,37.05Z"/>
      <path class="cls-104" d="M630.44,547.53c.05,1.46-.21,6.55,.65,7.42l1.14,.22,.82-.14,1.19,.12-.03,23.07-.71,.3-1.38,.33-.72,.23c-.76-.78-.44-2.98-.45-4.1l-.05-12.91c0-1.85,.39-4.4-.54-6l.08-8.55Z"/>
      <path class="cls-106" d="M632.22,555.17l.82-.14c-.68,1.55-.28,4.43-.25,6.2l.27,16.55,.43,.75-1.38,.33,.11-23.69Z"/>
      <path class="cls-104" d="M633.04,555.03l1.19,.12-.03,23.07-.71,.3-.43-.75-.27-16.55c-.02-1.77-.42-4.65,.25-6.2Z"/>
      <path class="cls-104" d="M620.9,546.28l1.05,.08c.44,.88,.24,2.18,.23,3.16l-.06,7.3,.05,25.73c-.31,.27-.57,.53-.94,.71l-1.15,.31-.21-37.05,1.02-.24Z"/>
      <path class="cls-106" d="M619.88,546.52l1.02-.24-.07,27.87c0,1.93-.53,7.63,.4,9.1l-1.15,.31-.21-37.05Z"/>
      <path class="cls-104" d="M582.14,547.26c1.18,1.08,4.85,.66,6.57,.67l-.35,28.37-.12,.04,.03-7.22c0-1.18,.18-2.5-.38-3.58-1.2-.57-4.32-.18-5.74-.19v-18.09Z"/>
      <path class="cls-105" d="M644.05,525.81l13.84,.06c.25,.31,.42,.51,.56,.88,.09,1.56,.55,5.09-.21,6.4-1.12,1.93-3.06,3.77-5.33,4.15-2.03,.34-4.24,.06-5.9-1.2-3.49-2.66-2.35-6.19-2.91-9.94l-.05-.34Z"/>
      <path class="cls-105" d="M513.95,528.42l3.59-4.79v37.12s-17.38-14.83-17.38-14.83l13.57-17.27,.22-.23Z"/>
      <path class="cls-104" d="M479.53,508.46h5.03c-.02,1.87-.56,6.19,.26,7.72l2.89,.13c.78,1,.32,20.83,.32,23.49l-7.32-3.03-11.08-4.22-.09-9.45h5.34s-.04-6.83-.04-6.83h4.75s-.05-7.82-.05-7.82Z"/>
      <path class="cls-105" d="M643.47,471.25l.42,.35c-4.61,4.68-6.74,11.85-6.37,18.35,.16,2.74,1.07,5.69,1.72,8.36l3,11.85c.42,1.48,1.62,4.02,1.2,5.49-1.12-1.7-4.59-2.69-6.49-3.65-4.85-3.2-8.54-8.31-9.74-14-1.27-5.97-.18-12.51,3.19-17.62,2.91-4.42,7.83-8.07,13.06-9.13Z"/>
      <path class="cls-105" d="M657.57,471.61c4.93,.57,10.31,4.57,13.34,8.43,3.55,4.51,5.32,9.68,4.62,15.44-.36,2.93-1.32,5.9-2.69,8.51l-.27,.45c-2.66,4.24-7.1,8.44-12.11,9.52l-.37,.08c-.45,.47-.76,.9-1.07,1.48l-.09,.18-.37-.08c-.23-1.7,.79-4.47,1.18-6.17l2.69-11.66c.67-2.94,1.48-5.97,1.56-9,.16-6.4-2.04-12.51-6.43-17.16Z"/>
      <path class="cls-105" d="M648.49,470.81c2.43-.44,4.68-.16,6.81,1.12,3.62,2.18,5.47,6.3,6.45,10.25,.56,2.28,.89,4.85,.72,7.19-.45,6.44-2.68,13.45-4.18,19.74-.52,2.16-.76,5.19-1.88,7.04l-2.99,.06-8.24-.09-4.14-16.8c-1.74-7.08-3.03-12.2-.51-19.32,1.57-4.45,3.67-7.15,7.97-9.2Z"/>
      <path class="cls-105" d="M538.78,480.89l4.33-5.82c.66,3.48,.15,7.97,.16,11.55v29.88s.04,50.57,.04,50.57l-.03,10.7c0,1.53,.25,3.62-.21,5.07l-.42,.12c-7.81-5.11-14.89-12.22-21.72-18.55l.05-19.74,17.76-6.18,.04-57.6Z"/>
      <path class="cls-104" d="M503.94,496.27l-.06-16.52,.47-.47,.73,.13c.59,1.04,.3,3.4,.3,4.63v12.62c2.58-.31,5.36-.11,7.97-.1,1,1.13-.28,2.75,1.61,2.86l1.95,.04c.69,.94,.37,3.31,.37,4.48v14.04c-.01,1.7-.32,4.05,.25,5.65l-3.59,4.79-.22,.23-13.57,17.27-8.83-4.83c-.33-1.31-.2-2.84-.21-4.19l-.02-7.71v-28.37c.61-1.06,2.06-.45,3.21-1.02l.09-2.72c1.3-1.46,7.1,.23,9.19-.65l.35-.16Z"/>
      <path class="cls-104" d="M613.02,518.33c.43-.07,.67-.18,1.08,0,.84,2.53,.24,6.69,.22,9.4,0,.91-.21,2.13,.26,2.93l1.36,.18c.38,1.25,.21,2.8,.21,4.11l-.04,7.68c0,1.41,.24,3.39-.04,4.73,.05,3.92-.49,25.65,.38,27,.95-1.43,.17-17.51,.38-20.78l-.08-22.52,.55-.4,.77,.28c.31,2.83,.11,5.86,.1,8.72l-.08,15.65c.36,3.11,.03,6.62,.02,9.77l.06,19.67c-5.25,2.72-10.26,5.71-15.79,7.89-3.12,1.24-6.42,2-9.68,2.78l.41-32.65,.06-12.7c0-1.99-.34-4.68,.21-6.56l.65-.09c.79,1.14,.38,4.74,.38,6.3v18.94c0,1.35-.37,4.52,.21,5.57l.36-30.42,.57-.43c.19,.14,.44,.23,.57,.43,.23,.34,.03,4.26,.03,4.88l-.05,19.38c0,1.52-.45,4.95,.3,6.08,.36-.32,.31-.31,.31-.8v-21.18c-.02-2.58-.5-6.08,.17-8.53l.71-.19,.54,.53v29.91s.35,.3,.35,.3c.62-1.11,.26-3.96,.26-5.29l-.05-15.96c-.04-2.82-.62-6.57,0-9.3l.78-.23,.55,.45,.21,30.36,.49-.34,.18-37.38,.61-.21c.2,.15,.45,.24,.59,.44,.08,.11-.02,.28-.02,.42l-.15,29.37c0,1.93-.52,6.27,.32,7.75,.78-.92,.35-27.05,.35-30.11,0-1.92-.59-6.03,.14-7.63l.82-.16c.15,.15,.36,.27,.45,.46,.34,.66-.07,26.84-.07,30.06,0,1.61-.45,6.3,.3,7.4,.14-.08,.35-.1,.42-.25,.39-.77-.05-25.99-.06-28.93,0-2.42-.49-6.25,.28-8.46l.87-.19c.83,2.55,.22,7.32,.22,10.11l-.06,22.48c.01,1.36-.32,4.16,.36,5.27,.68-.91,.34-4,.34-5.24l.07-16.35-.07-14.9c0-1.89-.42-5.01,.22-6.75l.84,.1c.99,1.98,.37,6.85,.37,9.13,0,3.86-.63,32.67,.28,34.02,.76-1.03,.34-4.87,.34-6.26l.05-21.07c-.34-1.68-.49-14.91,.08-15.95l.87,.17c.9,2.05,.36,6.53,.37,8.92l.02,26.13c0,1.92-.52,6.73,.31,8.11l.37-.35,.05-13.11-.05-24.44,.65-.43,.67,.43-.03,33.93c.02,1.01-.19,3.21,.39,3.98l.31-.19,.07-19c-.46-4.6-.04-9.72-.04-14.38v-15.16c-.01-2.13-.42-5.39,.3-7.36Z"/>
      <path class="cls-105" d="M613.02,518.33c.43-.07,.67-.18,1.08,0-.24,2.57,.54,11.93-.54,13.51l-.54-.44v-13.07Z"/>
      <path class="cls-107" d="M606.66,552.74l-.07-14.9c0-1.89-.42-5.01,.22-6.75l.84,.1c-.07,3.15-.23,31.57-.55,31.99l-.06-10.15-.38-.29Z"/>
      <path class="cls-104" d="M530.9,449.28c.1,1.81-.12,8.69,.74,9.6l.55,.39,.18,2.5c1.6,.66,4.4,.24,6.15,.21l.07,12.29c.01,2.13-.18,4.52,.18,6.61l-.04,57.6-17.76,6.18v-70.19s4.1-.02,4.1-.02l-.12-12.49,5.89,.06,.05-12.76Z"/>
      <path class="cls-105" d="M588.24,576.34l.05,19.41c-5.99,.73-12.83,1.08-18.82,.08-8.01-1.33-15.12-4.89-21.89-9.23l-.05-65.85,22.43,.05,.35,44.37c1,.18,2.15,.06,3.17,.05,.59-1.01,.35-3.18,.37-4.41l.03-12.97h6.92s.08-6.05,.08-6.05l.58-.41,.7,.55v5.32s0,18.09,0,18.09c1.42,0,4.54-.38,5.74,.19,.56,1.08,.38,2.4,.38,3.58l-.03,7.22Z"/>
      <path class="cls-104" d="M580.8,547.86l-.02,11.5c0,1.98,.16,4.13-.06,6.08-2.74-.1-8.16,.92-10.41-.27,1,.18,2.15,.06,3.17,.05,.59-1.01,.35-3.18,.37-4.41l.03-12.97h6.92Z"/>
    </g>
    <path class="cls-104" d="M152.5,614.53l92.11-.03,59.1-.42c1.08-.05,2.12-.56,2.9-1.29,.74-.7,1.22-1.51,1.35-2.52,.35-2.66,.14-5.65,.13-8.34v-15.03s.02-51.83,.02-51.83c.05-4.61,.82-5.37-2.18-5.37-.44,0-4.88,.3-5.32,.3-2.03,0-6.31-.18-7.59-.26h-.56s-.11,1.07-.11,1.07c-.04,2.79-.11,3.31-.12,5.82v15.87s-.15,55.93-.15,55.93h-5.96s-.08-66.48-.08-66.48l.09-24.53-10.49-.02c-1.28,0-3.15-.26-4.34,.24v24.05s0,7.23,0,7.23l-.18,59.74c-1.52,.03-4.7,.44-5.95-.3l-.02-100.17-15.78,.08,.14,70.64-.04,29.65-6.18-.05-.02-32.51-.06-7.5-14.74,.3-.09,.24c-.98,3.06-.17,7.63-.17,10.88l-.06,28.74h-6.35s.02-26.42,.02-26.42l-.02-7.8-15.63-.05-.06,7.81v26.6c-1.99-.03-4.15,.13-6.11-.14-1.05-1.4-.58-6.16-.58-8.05l.05-23.09h-15.21s-.03,31.28-.03,31.28h-6.2s0-12.48,0-12.48l-.04-10.35-.17-7.97-16.83,.08-.08,8.13-.02,10.14v12.58s-5.25-.03-5.25-.03c-1.2-1.54-.56-7.47-.54-9.69l-.06-5.59h-15.59s-.08,.23-.08,.23c-.62,2.13-.17,4.73-.09,6.93l-.02,8.31-6.49-.02v-9.3l-.09-6.14c-.31-2.56-.05-5.42-.03-8l.11-15.02h-15.96s.16,22.77,.16,22.77l-.08,.27c-.53,1.95-.26,4.11-.21,6.12l.07,9.56-5.89-.12-.36-24.52c-.79-.53-2.77-.25-3.72-.25l-11.33,.04c-.66,1.49-.26,4.79-.26,6.49v18.47c-.22,.09-.46,.17-.71,.23-1.96,0-4.44,.01-7.16,.02l-10.62,.03c-.53,.02-.95,.02-1.31,.05-2.97,.03-5.77,.07-8.05,.11h0s7.57-.04,7.57-.04c-.38,.08-.72,.23-1.09,.53-.43,.34-.7,.84-.79,1.38-.08,.47-.09,.75,.04,1.09,.27,.74,.94,1.26,1.71,1.4,.11,.02,.23,.04,.34,.04,5.2,.29,10.55-.07,15.77-.07"/>
    <path class="cls-97" d="M327.46,523.05c9.86,.32,19.77,.42,29.73,.32v4.74c.07,1.71-.03,3.39-.32,5.06-11.59,.34-23.19,.4-34.8,.16-.68,.03-1.21,.3-1.58,.79-.67,.3-1.04,.83-1.11,1.58,.15,33.84,.2,67.69,.16,101.54-.05,3.27,0,6.54,.16,9.81,.56,1.77,1.78,2.62,3.64,2.53,50.19,.42,100.38,.42,150.57,0h1.58c14.55-.09,29.11,.02,43.65,.32,1.7-.01,3.39-.17,5.06-.47,.57-.25,1.04-.62,1.42-1.11,.33-1.24,.49-2.5,.47-3.8-.31-36.69-.42-73.39-.32-110.08h-34.16c-.54-.23-1.12-.44-1.74-.63-.16-2.21-.21-4.43-.16-6.64v-2.21h29.1c3.17-.07,6.34,.03,9.49,.32,2.69,.53,4.43,2.11,5.22,4.74,.26,1.04,.42,2.1,.47,3.16v81.3c-.3,8.49-.3,16.92,0,25.31,.1,3.7-.05,7.4-.47,11.07-.43,1.71-1.33,3.08-2.69,4.11-.9,.15-1.74,.36-2.53,.63h-173.98c-11.81,.25-23.62,.2-35.43-.16-3.9-2.18-7.43-1.71-10.6,1.42-6.45,14.69-12.99,29.35-19.61,43.97-.68,1.87-1.26,3.77-1.74,5.69,.06,.34,.16,.66,.32,.95-1.07,2.99-.33,5.57,2.21,7.75,2.23,1.3,4.55,1.46,6.96,.47-1.12-.28-1.96-.91-2.53-1.9,.59-.92,.7-1.87,.32-2.85,86.99,.21,173.88,0,260.65-.63,.22-.28,.54-.39,.95-.32,1.43,2.74,.69,4.69-2.21,5.85-1.03,.33-2.08,.54-3.16,.63-13.97-.2-27.89-.15-41.76,.16-2.33,.48-4.34,1.53-6.01,3.16-5.22,3.74-9.96,8.06-14.23,12.97-3.47,3.31-7.27,6.16-11.39,8.54-2.56,1.28-5.19,2.39-7.91,3.32-5.63,1.14-11.22,.93-16.77-.63-3.2-1.02-6.37-2.12-9.49-3.32-10.54-5.53-21.51-10.12-32.9-13.76-1.69-.39-3.38-.76-5.06-1.11-9.1-2.3-18.38-3.09-27.84-2.37-1.65,.09-3.24,.36-4.74,.79-7.74,1.28-15.02,3.81-21.83,7.59-3.3,1.66-6.57,3.4-9.81,5.22-1.67,.88-3.14,1.99-4.43,3.32-5.57,3.2-10.84,6.84-15.82,10.91-7.89,5.82-16.43,10.51-25.62,14.08-3.57,1.15-7.15,2.1-10.76,2.85h-.63c-1.32,.11-2.59,.32-3.8,.63-23.8,2.03-44.1-5.35-60.89-22.14-3.51-4.42-5.41-9.48-5.69-15.18-1.55-4.72-4.14-8.78-7.75-12.18-6.35-6.02-13.73-10.34-22.14-12.97-9.53-2.67-19.12-5.1-28.79-7.28-10.72-2.38-20.05-7.28-28-14.71-3.4-3.62-6.04-7.73-7.91-12.34-3.39-11.98-.28-21.94,9.33-29.89,4.53-3.48,9.48-6.22,14.87-8.22,.81-.34,1.65-.5,2.53-.47,3.81-.86,7.61-1.6,11.39-2.21,1.94-.31,3.95-.42,6.01-.32,2.23-.06,4.44,.05,6.64,.32,5.83,.93,11.73,1.3,17.71,1.11,.89-.25,1.73-.51,2.53-.79,1.63-.51,3.21-1.14,4.74-1.9,7.44-2.75,12.66-7.81,15.66-15.18,1.29-4.95,2.87-9.8,4.74-14.55,5.39-10.58,13.99-16.8,25.78-18.66,4.43-.39,8.86-.39,13.29,0,6.76,.69,13.09,2.75,18.98,6.17,4.2,2.79,8.63,5.16,13.29,7.12,5.87,2.82,11.77,2.93,17.71,.32,1.66-.41,3.14-1.15,4.43-2.21,1.21-.42,2.21-1.16,3.01-2.21,.16-16.34,.21-32.69,.16-49.03-.12-3.92,.09-7.83,.63-11.7,.79-2.37,2.27-4.16,4.43-5.38,3.59-1.15,7.28-1.57,11.07-1.27Z"/>
    <path class="cls-52" d="M518.84,524.95c2.68-.31,5.43-.42,8.22-.32,.47,.15,.9,.37,1.27,.63-3.15-.28-6.32-.39-9.49-.32Z"/>
    <path class="cls-74" d="M311.64,529.69c-.67,3.93-.78,7.83-.32,11.7,.05,16.34,0,32.69-.16,49.03-.79,1.06-1.79,1.8-3.01,2.21,.09-.51,.41-.83,.95-.95,.26-.61,.41-1.24,.47-1.9,.29,.26,.5,.58,.63,.95,.18-.68,.34-1.36,.47-2.06-.34-18.91-.39-37.83-.16-56.78,.17-.88,.53-1.62,1.11-2.21Z"/>
    <path class="cls-26" d="M534.02,533.17c.32,14.92,.42,29.89,.32,44.92,1.37,.29,2.64,.82,3.8,1.58-1.41-.17-2.78-.48-4.11-.95v-45.55Z"/>
    <path class="cls-63" d="M356.88,533.17c-12.03,.53-24.15,.85-36.38,.95,.37-.5,.9-.76,1.58-.79,11.6,.24,23.2,.19,34.8-.16Z"/>
    <path class="cls-82" d="M495.43,534.44h30.37c-.1,36.7,0,73.39,.32,110.08,.02,1.29-.14,2.56-.47,3.8-.38,.49-.86,.86-1.42,1.11-1.67,.3-3.36,.46-5.06,.47-14.55-.3-29.1-.4-43.65-.32-.1-.21-.21-.42-.32-.63,16.46,.03,32.91-.02,49.35-.16,.17-.29,.38-.56,.63-.79,.32-37.64,.42-75.29,.32-112.93-9.81,.05-19.61,0-29.42-.16-.29-.09-.5-.25-.63-.47Z"/>
    <path class="cls-98" d="M311.64,529.69h.32c-.54,3.88-.75,7.78-.63,11.7-.46-3.87-.36-7.77,.32-11.7Z"/>
    <path class="cls-80" d="M235.72,548.67c2.46-.18,3.09,.83,1.9,3.01-2.39,.09-3.02-.91-1.9-3.01Z"/>
    <path class="cls-61" d="M615.63,555c4.47,.61,8.69,1.98,12.65,4.11,1.72,1.13,3.4,2.35,5.06,3.64,4.65,4.76,9.18,9.61,13.6,14.55,9.36,7.75,20.12,12.33,32.27,13.76,6.74,.76,13.18,2.66,19.3,5.69,8.98,4.99,15.04,12.37,18.19,22.14,.31,1.46,.47,2.94,.47,4.43,.21,3.63-.32,7.11-1.58,10.44-.67,1.05-1.2,1.05-1.58,0-1.21-.97-2.57-1.5-4.11-1.58,.06-.51-.1-.93-.47-1.27-.33,.51-.81,.72-1.42,.63v-1.9c-1.97-.33-3.6-1.27-4.9-2.85-2.62-1.33-5.15-3.02-7.59-5.06-.13,.14-.29,.25-.47,.32-.64-.53-1.38-.74-2.21-.63,.05-.42-.05-.79-.32-1.11-.73-.16-1.47-.21-2.21-.16,.84-1.42,1.47-2.95,1.9-4.59-.44-.42-.54-.84-.32-1.27-.3-.15-.62-.21-.95-.16-1.04-.93-2.2-1.14-3.48-.63-.32,.03-.58-.08-.79-.32-.73,.93-1.21,1.99-1.42,3.16,.1,.36,.31,.63,.63,.79-.19,.6-.29,1.18-.32,1.74-.21-.21-.42-.42-.63-.63,0-1.76-.63-3.18-1.9-4.27-1.31-.5-2.47-1.24-3.48-2.21-.83-.59-1.56-.53-2.21,.16l-.95-.95c.17-.22,.38-.38,.63-.47-2.76-2.41-5.92-3.94-9.49-4.59,.61-.26,1.24-.41,1.9-.47-1.29-.67-2.51-1.46-3.64-2.37-.1,.95-.21,1.9-.32,2.85-.05-2.69-.21-5.33-.47-7.91,.09-.61-.02-1.13-.32-1.58-.47-.74-1.11-1.32-1.9-1.74-3.99-2.07-8.16-3.7-12.49-4.9-.28,.08-.55,.18-.79,.32-1.71,.57-3.39,1.2-5.06,1.9,.18-.41,.49-.67,.95-.79-.05-.35-.16-.72-.32-1.11-1.74-1.03-3.43-2.13-5.06-3.32-.87-.55-1.82-.82-2.85-.79,.06-.6-.15-1.07-.63-1.42-4.52-2.9-9.06-5.8-13.6-8.7,.33-.29,.33-.5,0-.63,.28-1.04,.33-2.1,.16-3.16-.34-.82-.92-1.34-1.74-1.58-.8-.24-1.64-.45-2.53-.63-.65,.8-1.22,1.65-1.74,2.53-1.46-1.32-3.2-1.95-5.22-1.9,.5-.25,1.02-.41,1.58-.47-2.37-1.89-5-3.21-7.91-3.95,.28-.24,.59-.4,.95-.47-1.25-1.02-2.57-1.91-3.95-2.69-.13,.14-.29,.25-.47,.32-.67-1.46-1.83-2.09-3.48-1.9-.01-1.29-.44-1.5-1.27-.63-.52-.29-1.04-.56-1.58-.79-.42-.42-.42-.84,0-1.27-.29-.12-.55-.28-.79-.47-.35,.6-.77,.81-1.27,.63-.21-.51-.05-.88,.47-1.11-.37-.13-.69-.34-.95-.63,.55-.38,1.08-.75,1.58-1.11,.51-.5,1.14-.71,1.9-.63,6.31-1.16,12.63-1.26,18.98-.32Z"/>
    <path class="cls-92" d="M628.28,559.11c-3.97-2.13-8.18-3.5-12.65-4.11-.24-.24-.56-.4-.95-.47-4.42-.46-8.85-.57-13.29-.32-1.65,.27-3.23,.64-4.74,1.11-.76-.08-1.39,.13-1.9,.63-.88-.02-1.72,.13-2.53,.47-2.02,.69-3.92,1.59-5.69,2.69-.63,.21-1.27,.42-1.9,.63,.14-.5,.46-.87,.95-1.11,1.28-.75,2.65-1.27,4.11-1.58,.14-.29,.24-.55,.32-.79,.19,.07,.34,.17,.47,.32,1.93-.79,3.88-1.53,5.85-2.21,1.16,.49,1.37,.33,.63-.47,1.02,.13,2.02,.18,3.01,.16,.87-.25,1.71-.57,2.53-.95,2.86,.38,5.66,.38,8.38,0,1.65,.93,3.39,1.14,5.22,.63,.26,.26,.53,.53,.79,.79,1.18,.06,2.28,.32,3.32,.79,.58-.14,1.16-.25,1.74-.32v.95c.72,.07,1.4,.28,2.06,.63,.61-.27,1.19-.27,1.74,0-.07,.19-.17,.34-.32,.47,.84,.42,1.69,.84,2.53,1.27,.24,.21,.34,.48,.32,.79Z"/>
    <path class="cls-94" d="M615.63,555c-6.35-.95-12.67-.84-18.98,.32,1.52-.47,3.1-.84,4.74-1.11,4.44-.25,8.87-.14,13.29,.32,.39,.07,.71,.23,.95,.47Z"/>
    <path class="cls-33" d="M672.57,553.73c1.27-.19,2.38,.13,3.32,.95,.79,2.9-.31,4.11-3.32,3.64-1.23-1.51-1.23-3.04,0-4.59Z"/>
    <path class="cls-66" d="M557.43,556.58c2.27-.31,3.38,.64,3.32,2.85-1.12,1.83-2.49,2.04-4.11,.63-.77-1.4-.5-2.56,.79-3.48Z"/>
    <path class="cls-78" d="M594.75,555.95c-.51,.36-1.03,.73-1.58,1.11,.26,.29,.58,.5,.95,.63-.53,.23-.68,.6-.47,1.11,.5,.18,.92-.03,1.27-.63,.24,.2,.5,.36,.79,.47-.42,.42-.42,.84,0,1.27,.54,.24,1.07,.5,1.58,.79,.83-.87,1.25-.66,1.27,.63,1.65-.19,2.81,.44,3.48,1.9,.19-.07,.34-.17,.47-.32,1.39,.78,2.71,1.67,3.95,2.69-.35,.08-.67,.24-.95,.47,2.91,.74,5.54,2.06,7.91,3.95-.56,.06-1.08,.22-1.58,.47,2.02-.05,3.75,.58,5.22,1.9,.52-.88,1.09-1.73,1.74-2.53,.89,.18,1.73,.39,2.53,.63-2.67-.13-3.88,1.14-3.64,3.8,1.29,2.59,3.03,2.9,5.22,.95,.33,.13,.33,.34,0,.63,4.55,2.9,9.08,5.8,13.6,8.7,.49,.35,.7,.83,.63,1.42,1.03-.03,1.98,.24,2.85,.79,1.64,1.19,3.32,2.29,5.06,3.32,.16,.38,.26,.75,.32,1.11-.46,.12-.77,.38-.95,.79-1.67,1.15-3.46,2.16-5.38,3.01-.24,.21-.34,.48-.32,.79-2.11-1.12-4.32-2.38-6.64-3.8-.71-.55-1.24-1.24-1.58-2.06-.76-.06-1.5-.22-2.21-.47-1.92-1.59-4.03-2.86-6.33-3.8-1.9-1.48-3.8-2.95-5.69-4.43-.82-.31-1.66-.42-2.53-.32v-1.27h-1.9c.05-.63-.16-1.16-.63-1.58-2.85-1.53-5.59-3.22-8.22-5.06-.79-.5-1.63-.82-2.53-.95v-1.27c-1.52,.12-2.63-.52-3.32-1.9-.1,.11-.21,.21-.32,.32-1.42-1.05-2.95-1.9-4.59-2.53-1.45-.82-2.71-1.87-3.8-3.16-.98-.59-2.03-.96-3.16-1.11,.21-.11,.42-.21,.63-.32-1.08-.67-1.24-1.36-.47-2.06,.63,.17,1-.15,1.11-.95,1.77-1.1,3.67-2,5.69-2.69,.81-.34,1.65-.5,2.53-.47Z"/>
    <path class="cls-21" d="M586.53,559.11c-.1,.8-.47,1.12-1.11,.95-.76,.7-.6,1.38,.47,2.06-.21,.11-.42,.21-.63,.32,1.13,.15,2.19,.52,3.16,1.11,1.08,1.29,2.35,2.35,3.8,3.16,1.64,.63,3.17,1.48,4.59,2.53,.1-.11,.21-.21,.32-.32,.69,1.38,1.8,2.01,3.32,1.9v1.27c.9,.13,1.74,.45,2.53,.95,2.63,1.85,5.38,3.53,8.22,5.06,.47,.42,.69,.95,.63,1.58h1.9v1.27c.87-.1,1.71,0,2.53,.32,1.9,1.48,3.8,2.95,5.69,4.43,2.3,.94,4.41,2.2,6.33,3.8,.72,.26,1.46,.42,2.21,.47,.34,.82,.87,1.5,1.58,2.06,2.32,1.41,4.53,2.68,6.64,3.8h6.64c-2.37,.26-4.8,.42-7.28,.47-1.81,1.12-3.71,2.06-5.69,2.85-.21,1.98-.42,3.93-.63,5.85-3.16-1.48-6.33-2.95-9.49-4.43-4.22-2.21-8.44-4.43-12.65-6.64-.1-.49-.42-.7-.95-.63,.12-.77-.09-.98-.63-.63-11.92-7.33-23.73-14.82-35.43-22.46,.63-.47,1.21-1,1.74-1.58,.1,.26,.26,.47,.47,.63,.55-.16,1.07-.37,1.58-.63-1.05-.19-1.37-.72-.95-1.58,2.9-2.66,5.96-5.08,9.17-7.28,.63-.21,1.27-.42,1.9-.63Z"/>
    <path class="cls-4" d="M575.46,567.02c-.42,.86-.1,1.39,.95,1.58-.51,.26-1.03,.47-1.58,.63-.22-.17-.38-.38-.47-.63-.53,.59-1.11,1.11-1.74,1.58,11.69,7.64,23.51,15.13,35.43,22.46,.54-.35,.75-.14,.63,.63,.53-.07,.85,.14,.95,.63h-1.58v6.33c-.26-2.05-.42-4.16-.47-6.33-1.14,.25-2.24,.62-3.32,1.11-2.39,1.4-4.82,2.72-7.28,3.95,.09-.21,.2-.42,.32-.63-1.71-.94-3.5-1.73-5.38-2.37-.27-.32-.37-.69-.32-1.11-1.64-.4-3.12-1.14-4.43-2.21-.47-.42-.69-.95-.63-1.58-1.79-.12-3.48-.54-5.06-1.27v-1.9c-1.09-.08-2.14-.29-3.16-.63v-1.27h-1.9v-1.27c-1.59,.24-2.86-.29-3.8-1.58-2.7-1.27-5.08-2.96-7.12-5.06-.1,.11-.21,.21-.32,.32-.23-1.28,.24-2.18,1.42-2.69-.37-.36-.37-.73,0-1.11,3.04-2.4,5.99-4.93,8.86-7.59Z"/>
    <path class="cls-73" d="M621.33,570.5c.82,.24,1.4,.77,1.74,1.58,.17,1.07,.12,2.12-.16,3.16-2.19,1.96-3.93,1.64-5.22-.95-.24-2.66,.97-3.92,3.64-3.8Z"/>
    <path class="cls-89" d="M692.18,573.98c.62-.08,1.2,.03,1.74,.32,.24,.82,.19,1.61-.16,2.37-1.15,.42-1.89,.05-2.21-1.11,.3-.5,.51-1.03,.63-1.58Z"/>
    <path class="cls-91" d="M534.02,578.72c1.33,.47,2.7,.78,4.11,.95,4.8,1,9.65,1.21,14.55,.63-.03,.2-.14,.35-.32,.47-2.41,.35-4.84,.56-7.28,.63,2.4,1.24,4.72,2.62,6.96,4.11,.1,.11,.21,.21,.32,.32-.42,.32-.84,.63-1.27,.95,.39,.07,.71,.23,.95,.47-.79,.15-1.42,.57-1.9,1.27-.22,.9-.64,1.69-1.27,2.37,.46,1.38,1.19,2.6,2.21,3.64,1.72,1.34,3.67,2.19,5.85,2.53,1.54-.18,3.18-.28,4.9-.32,.21,.24,.48,.45,.79,.63,1.05-.44,2.06-.97,3.01-1.58,.84-.42,1.69-.42,2.53,0,1.16,.9,2.43,1.64,3.8,2.21,.37-.13,.69-.34,.95-.63,.34,.27,.4,.59,.16,.95-.51,.37-1.09,.63-1.74,.79,.36,.2,.68,.47,.95,.79,1.16-1.81,2.75-2.39,4.74-1.74,.44,.55,.65,1.18,.63,1.9-.19,.79-.24,1.58-.16,2.37,.58,.42,.74,.37,.47-.16,.22-.4,.49-.77,.79-1.11,.46,.56,.77,1.19,.95,1.9,.65,.63,1.34,1.11,2.06,1.42-.27,.32-.37,.69-.32,1.11,.43-.05,.86,0,1.27,.16-.46,.22-.68,.59-.63,1.11-.75,.27-1.39,.69-1.9,1.27-.58-.4-1.16-.4-1.74,0-.44,2.08-.59,4.19-.47,6.33v6.01c-.28,.35-.55,.35-.79,0-.27,1.09-.53,1.14-.79,.16,.1-.26,.21-.53,.32-.79,.29,.36,.56,.36,.79,0,.21-1.16,.21-2.32,0-3.48-5.25-3.26-10.47-6.58-15.66-9.96-.86-.06-1.71-.22-2.53-.47,.41-.24,.57-.56,.47-.95-.96-.46-1.86-1.04-2.69-1.74-.63,.11-1.27,.21-1.9,.32,.42-.91,.16-1.59-.79-2.06-.13,.14-.29,.25-.47,.32-.21-.32-.42-.63-.63-.95-5.76-3.56-11.45-7.2-17.08-10.91-.3-.15-.62-.21-.95-.16,.08,.47-.02,.89-.32,1.27-.26-.61-.41-1.24-.47-1.9-.07,.39-.23,.71-.47,.95v-11.39Z"/>
    <path class="cls-72" d="M566.6,574.61c-.37,.38-.37,.74,0,1.11-1.18,.51-1.65,1.41-1.42,2.69,.1-.11,.21-.21,.32-.32,2.04,2.11,4.41,3.79,7.12,5.06,.94,1.29,2.2,1.82,3.8,1.58v1.27h1.9v1.27c1.02,.34,2.08,.55,3.16,.63v1.9c1.58,.72,3.27,1.14,5.06,1.27-.05,.63,.16,1.16,.63,1.58,1.31,1.08,2.79,1.82,4.43,2.21-.05,.42,.05,.79,.32,1.11,1.88,.64,3.67,1.43,5.38,2.37-.11,.22-.22,.43-.32,.63-4.89,2.71-9.85,5.35-14.87,7.91-.04-.51,.17-.88,.63-1.11-.41-.15-.83-.21-1.27-.16-.05-.42,.05-.79,.32-1.11-.72-.32-1.4-.79-2.06-1.42-.18-.7-.49-1.34-.95-1.9-.3,.34-.57,.71-.79,1.11,.27,.53,.11,.58-.47,.16-.08-.79-.03-1.58,.16-2.37,.02-.72-.19-1.35-.63-1.9-2-.65-3.58-.07-4.74,1.74-.27-.32-.59-.59-.95-.79,.65-.16,1.23-.42,1.74-.79,.24-.36,.18-.68-.16-.95-.26,.29-.58,.5-.95,.63-1.37-.58-2.63-1.32-3.8-2.21-.84-.42-1.69-.42-2.53,0-.95,.62-1.95,1.14-3.01,1.58-.31-.18-.58-.39-.79-.63,1.52-.37,3-1.05,4.43-2.06,1.95-2.38,2.05-4.81,.32-7.28-1.13-.54-2.24-1.12-3.32-1.74-.1,.11-.21,.21-.32,.32-3.07-1.12-6.18-1.06-9.33,.16-.66,.22-1.19,.59-1.58,1.11-.24-.24-.56-.4-.95-.47,.42-.32,.84-.63,1.27-.95-.1-.11-.21-.21-.32-.32-2.24-1.5-4.56-2.87-6.96-4.11,2.44-.08,4.87-.29,7.28-.63,.18-.12,.28-.28,.32-.47,4.94-1.21,9.58-3.11,13.92-5.69Z"/>
    <path class="cls-27" d="M253.75,581.25c-4.43-.39-8.86-.39-13.29,0,4.43-.83,8.86-.83,13.29,0Z"/>
    <path class="cls-49" d="M561.86,596.75c-1.72,.03-3.36,.14-4.9,.32-2.18-.35-4.13-1.19-5.85-2.53-1.02-1.04-1.76-2.25-2.21-3.64,.63-.68,1.05-1.47,1.27-2.37,.48-.69,1.11-1.11,1.9-1.27,.4-.52,.92-.89,1.58-1.11,3.15-1.22,6.26-1.27,9.33-.16,.1-.11,.21-.21,.32-.32,1.08,.62,2.19,1.2,3.32,1.74,1.74,2.47,1.63,4.89-.32,7.28-1.43,1-2.91,1.69-4.43,2.06Z"/>
    <path class="cls-87" d="M193.97,586c3.65-.52,4.97,.96,3.95,4.43-1.06,1.49-2.48,1.97-4.27,1.42-1.77-2.07-1.66-4.02,.32-5.85Z"/>
    <path class="cls-55" d="M577.99,620.48c.05,1.9,0,3.8-.16,5.69-.1-.53-.21-1.05-.32-1.58-.32,.26-.69,.37-1.11,.32v-.95c-.9-.13-1.74-.45-2.53-.95-3.27-2.81-6.85-5.13-10.76-6.96-2.83-1.95-5.68-3.9-8.54-5.85-1.3-.04-2.14-.67-2.53-1.9-.76-.26-1.5-.2-2.21,.16,.38,.29,.8,.4,1.27,.32v1.27h1.27v1.27h2.53c-.07,1.19,.25,1.4,.95,.63,.31,.6,.41,1.23,.32,1.9,.66-.09,1.3,.01,1.9,.32,2.1,1.45,4.21,2.92,6.33,4.43,.6,.31,1.23,.41,1.9,.32v1.27h1.9v1.27h1.9v1.27c1.54,.24,2.81,.98,3.8,2.21,.88,.3,1.72,.67,2.53,1.11,.44,.37,.71,.84,.79,1.42,.1-.21,.21-.42,.32-.63,.18,.86,.28,1.7,.32,2.53-1.48-.64-2.8-1.54-3.95-2.69-6.13-3.8-12.25-7.59-18.35-11.39-.55-.57-.76-1.25-.63-2.06-2.62-.53-5.26-.79-7.91-.79,.48-.87,.96-.92,1.42-.16,.42-.42,.84-.42,1.27,0,.47-.24,.52-.5,.16-.79-.4-.35-.77-.4-1.11-.16-3.13-2.39-6.35-4.66-9.65-6.8-1.46-.89-2.94-1.68-4.43-2.37-.27,.77-.48,2.14-.63,4.11v-16.13c.24-.24,.4-.56,.47-.95,.06,.66,.22,1.29,.47,1.9,.29-.38,.4-.8,.32-1.27,.33-.05,.65,0,.95,.16,5.63,3.71,11.32,7.35,17.08,10.91,.21,.32,.42,.63,.63,.95,.19-.07,.34-.17,.47-.32,.95,.47,1.21,1.15,.79,2.06,.63-.11,1.27-.21,1.9-.32,.83,.7,1.72,1.28,2.69,1.74,.1,.39-.06,.71-.47,.95,.83,.26,1.67,.42,2.53,.47,5.18,3.38,10.4,6.7,15.66,9.96,.21,1.16,.21,2.32,0,3.48-.23,.36-.5,.36-.79,0-.1,.26-.21,.53-.32,.79,.26,.98,.53,.93,.79-.16,.24,.35,.51,.35,.79,0Z"/>
    <path class="cls-96" d="M649.48,590.11c-.6,1.42-1.03,2.9-1.27,4.43-.69,.9-1.64,1.32-2.85,1.27h-6.64c-.03-.32,.08-.58,.32-.79,1.91-.85,3.71-1.85,5.38-3.01,1.67-.7,3.35-1.33,5.06-1.9Z"/>
    <path class="cls-84" d="M664.66,596.44c-.17,.67-.59,1.15-1.27,1.42-4.96,2.58-9.91,5.17-14.87,7.75,.1-3.68,0-7.37-.32-11.07,.24-1.53,.66-3.01,1.27-4.43,.24-.13,.51-.24,.79-.32,4.34,1.2,8.5,2.83,12.49,4.9,.79,.42,1.42,1,1.9,1.74Z"/>
    <path class="cls-22" d="M679.21,591.06c2.54,.03,5.02,.35,7.43,.95,1.2-.43,2.41-.22,3.64,.63,.21-.05,.42-.11,.63-.16-.26-.1-.46-.26-.63-.47,.39-.35,.81-.41,1.27-.16-.1,.11-.21,.21-.32,.32,.84,.32,.84,.63,0,.95,1.14,.38,2.3,.7,3.48,.95,1.05,.81,2.21,1.44,3.48,1.9,.24,.21,.34,.48,.32,.79-6.12-3.03-12.55-4.93-19.3-5.69Z"/>
    <path class="cls-79" d="M608.04,600.23c.05,6.01,0,12.02-.16,18.03,.21,1.96-.59,2.7-2.37,2.21-8.42-4.08-16.85-8.19-25.31-12.34,.51-.57,1.15-1,1.9-1.27,5.02-2.56,9.97-5.2,14.87-7.91,2.45-1.24,4.88-2.55,7.28-3.95,1.08-.49,2.19-.86,3.32-1.11,.05,2.17,.21,4.27,.47,6.33Z"/>
    <path class="cls-84" d="M622.27,600.55c3.16,1.48,6.33,2.95,9.49,4.43,1.79,1.11,3.69,2.06,5.69,2.85,.32,.16,.38,.37,.16,.63-.37,.37-.74,.74-1.11,1.11-8.89,4.89-17.7,9.9-26.41,15.03-.1,11.28-.21,22.56-.32,33.85-.32,.27-.69,.37-1.11,.32-7.17-3.38-14.34-6.75-21.51-10.12,.22-1.33,.9-2.39,2.06-3.16,.92-2.22,.34-3.96-1.74-5.22-3.3-1.82-6.25-1.34-8.86,1.42-.3-.49-.41-1.02-.32-1.58,.1-8.6,0-17.14-.32-25.62-.12-2.14,.04-4.25,.47-6.33,.58-.4,1.16-.4,1.74,0,8.46,4.15,16.89,8.26,25.31,12.34,.26,.39,.69,.61,1.27,.63,.42-.05,.84-.11,1.27-.16-.1-.11-.21-.21-.32-.32,.22-.34,.38-.71,.47-1.11,.1-8.01,.21-16.03,.32-24.04,.79-1.32,1.32-1.21,1.58,.32,.12-.29,.33-.5,.63-.63,1.86,.82,3.55,1.87,5.06,3.16,.1-.11,.21-.21,.32-.32,.86,.44,1.76,.81,2.69,1.11-.76,.25-.71,.52,.16,.79,.32-.11,.63-.21,.95-.32,.21,.42,.53,.74,.95,.95,.41-.15,.89-.15,1.42,0Z"/>
    <path class="cls-5" d="M303.73,594.86c-5.94,2.61-11.85,2.51-17.71-.32,.84-.11,1.58,.1,2.21,.63,1.32-.72,2.69-.93,4.11-.63-.6,.31-1.23,.41-1.9,.32v.95c2.64,.05,5.27,0,7.91-.16-.38-.21-.38-.37,0-.47,.41,.34,.88,.55,1.42,.63,1.3-.39,2.62-.71,3.95-.95Z"/>
    <path class="cls-76" d="M648.21,594.54c.31,3.71,.41,7.4,.32,11.07,4.96-2.58,9.91-5.17,14.87-7.75,.68-.28,1.1-.75,1.27-1.42,.3,.45,.4,.98,.32,1.58v15.5c-4.62,2.52-9.16,5.16-13.6,7.91-1.51,.71-2.98,1.5-4.43,2.37-2.74,.08-5.22-.71-7.43-2.37-.15,.52-.21,1.04-.16,1.58,.05,6.64,0,13.29-.16,19.93-.1,.4-.26,.77-.47,1.11-.71,.3-1.34,.67-1.9,1.11-8.32,4.48-16.65,8.96-24.99,13.44-1.09,.5-2.14,.55-3.16,.16,.42,.05,.79-.05,1.11-.32,.1-11.28,.21-22.56,.32-33.85,8.71-5.12,17.52-10.13,26.41-15.03,.37-.37,.74-.74,1.11-1.11,.22-.26,.16-.47-.16-.63-2.01-.79-3.9-1.74-5.69-2.85,.22-1.92,.43-3.87,.63-5.85,1.99-.78,3.88-1.73,5.69-2.85,2.48-.05,4.91-.21,7.28-.47,1.21,.06,2.16-.36,2.85-1.27Z"/>
    <path class="cls-34" d="M609.62,593.91c4.22,2.21,8.44,4.43,12.65,6.64-.54-.15-1.01-.15-1.42,0-.42-.21-.74-.53-.95-.95-.32,.11-.63,.21-.95,.32-.86-.27-.92-.54-.16-.79-.93-.3-1.83-.67-2.69-1.11-.1,.11-.21,.21-.32,.32-1.51-1.29-3.2-2.35-5.06-3.16-.3,.13-.51,.34-.63,.63-.26-1.53-.79-1.64-1.58-.32-.1,8.01-.21,16.03-.32,24.04-.1,.4-.26,.77-.47,1.11,.1,.11,.21,.21,.32,.32-.42,.05-.84,.11-1.27,.16-.58-.03-1-.24-1.27-.63,1.79,.48,2.58-.25,2.37-2.21,.16-6.01,.21-12.02,.16-18.03v-6.33h1.58Z"/>
    <path class="cls-19" d="M574.19,598.65c2.58-.63,3.48,.32,2.69,2.85-.77,1.16-1.72,1.27-2.85,.32-.63-1.1-.58-2.16,.16-3.16Z"/>
    <path class="cls-59" d="M577.99,620.48v-6.01c.32,8.49,.42,17.03,.32,25.62-.41,1.32-.41,2.7,0,4.11,1.44,.77,2.82,1.62,4.11,2.53,.34,.44,.76,.81,1.27,1.11,1.86,.51,3.55,1.35,5.06,2.53-1.55,1.29-3.24,1.55-5.06,.79-1.31-1.66-3-2.76-5.06-3.32-2.4-1.94-4.93-3.74-7.59-5.38-.84-.6-1.79-.87-2.85-.79,.05-.42-.05-.79-.32-1.11-1.44-.9-2.86-1.79-4.27-2.69-.24,.05-.46,.15-.63,.32-1.05-.47-2.05-1-3.01-1.58v-1.27c-.84-.21-1.69-.42-2.53-.63,.05-.42-.05-.79-.32-1.11-1.48-.75-2.96-1.49-4.43-2.21-.24-.48-.56-.9-.95-1.27-4.67-2.39-9.1-5.18-13.29-8.38-.6-.31-1.23-.41-1.9-.32,.07-.37-.03-.69-.32-.95-.57-.38-1.1-.7-1.58-.95-.21-1.74-.42-3.42-.63-5.06v-8.22c.15-1.97,.36-3.34,.63-4.11,1.49,.7,2.97,1.49,4.43,2.37,3.3,2.14,6.52,4.41,9.65,6.8,.34-.25,.71-.19,1.11,.16,.36,.29,.31,.55-.16,.79-.42-.42-.84-.42-1.27,0-.46-.76-.94-.71-1.42,.16,2.65,0,5.29,.26,7.91,.79-.13,.8,.09,1.49,.63,2.06,6.1,3.79,12.21,7.59,18.35,11.39,1.15,1.15,2.47,2.05,3.95,2.69-.03-.83-.14-1.67-.32-2.53-.1,.21-.21,.42-.32,.63-.09-.58-.35-1.05-.79-1.42-.81-.44-1.65-.8-2.53-1.11-.99-1.23-2.26-1.97-3.8-2.21v-1.27h-1.9v-1.27h-1.9v-1.27c-.66,.09-1.3-.01-1.9-.32-2.11-1.51-4.22-2.98-6.33-4.43-.6-.31-1.23-.41-1.9-.32,.09-.67,0-1.3-.32-1.9-.7,.77-1.02,.56-.95-.63h-2.53v-1.27h-1.27v-1.27c-.47,.08-.89-.02-1.27-.32,.71-.36,1.46-.42,2.21-.16,.39,1.23,1.23,1.86,2.53,1.9,2.86,1.96,5.71,3.91,8.54,5.85,3.9,1.83,7.49,4.15,10.76,6.96,.79,.5,1.63,.82,2.53,.95v.95c.42,.05,.79-.05,1.11-.32,.1,.53,.21,1.05,.32,1.58,.16-1.9,.21-3.79,.16-5.69Z"/>
    <path class="cls-16" d="M664.98,598.02c.26,2.58,.42,5.22,.47,7.91,.1-.95,.21-1.9,.32-2.85,1.13,.91,2.34,1.7,3.64,2.37-.66,.06-1.29,.22-1.9,.47,3.57,.65,6.73,2.18,9.49,4.59-.26,.1-.46,.26-.63,.47l.95,.95c.65-.69,1.39-.74,2.21-.16,1.01,.98,2.17,1.72,3.48,2.21,1.27,1.09,1.9,2.51,1.9,4.27,.21,.21,.42,.42,.63,.63,.02-.56,.13-1.14,.32-1.74-.32-.16-.53-.43-.63-.79,.22-1.17,.69-2.23,1.42-3.16,.21,.24,.47,.34,.79,.32-2.09,1.71-2.09,3.45,0,5.22,3.38,.28,4.54-1.25,3.48-4.59,.33-.05,.65,0,.95,.16-.22,.42-.12,.85,.32,1.27-.42,1.64-1.06,3.17-1.9,4.59,.75-.05,1.48,0,2.21,.16,.27,.32,.37,.69,.32,1.11,.84-.11,1.58,.1,2.21,.63,.19-.07,.34-.17,.47-.32,2.45,2.05,4.98,3.73,7.59,5.06,1.3,1.57,2.94,2.52,4.9,2.85v1.9c.62,.09,1.09-.12,1.42-.63,.38,.34,.53,.76,.47,1.27,1.54,.08,2.91,.61,4.11,1.58,.38,1.05,.91,1.05,1.58,0-.53,2.22-1.48,4.23-2.85,6.01-.2-.03-.35-.14-.47-.32-.16,.37-.42,.63-.79,.79,.36,.32,.25,.53-.32,.63,.36,.29,.31,.55-.16,.79-.23-1.16-.71-1.38-1.42-.63-.59-.55-1.07-1.18-1.42-1.9-.07,.46-.23,.88-.47,1.27-.6-.68-1.13-1.42-1.58-2.21-.6-.31-1.23-.41-1.9-.32,.03-.79-.29-1.43-.95-1.9-.42,.48-.95,.69-1.58,.63,.05-.63-.16-1.16-.63-1.58-1.16-.47-2.21-1.11-3.16-1.9-.6-.31-1.23-.41-1.9-.32v-1.27c-1.08-.08-2.14-.29-3.16-.63v-1.27c-.9-.13-1.74-.45-2.53-.95-1.59-.9-3.07-1.95-4.43-3.16-1.1-.3-2.16-.72-3.16-1.27-.94-1-1.99-1.84-3.16-2.53-2.2-.79-4.1-2.05-5.69-3.8-.38-.29-.8-.4-1.27-.32,.05-.42-.05-.79-.32-1.11-.94-.16-1.89-.21-2.85-.16v-1.27c-.54,.05-1.07,0-1.58-.16-.69-.9-1.37-1.79-2.06-2.69-.11,.67-.33,1.3-.63,1.9-.15-.19-.2-.4-.16-.63v-15.5Z"/>
    <path class="cls-35" d="M740.26,609.41c3.42,.37,4.05,1.9,1.9,4.59-1.35,.46-2.36,.09-3.01-1.11-.42-1.46-.05-2.62,1.11-3.48Z"/>
    <path class="cls-88" d="M83.57,610.36c5.1,.3,6.84,2.83,5.22,7.59-3.35,3.19-6.3,2.88-8.86-.95-.27-1.41-.17-2.78,.32-4.11,.93-1.12,2.04-1.96,3.32-2.53Z"/>
    <path class="cls-11" d="M130.07,610.67c6.69-.11,9.69,3.16,9.02,9.81-2.28,4.64-5.81,5.96-10.6,3.95-3.93-2.63-4.83-6.06-2.69-10.28,1.19-1.46,2.62-2.62,4.27-3.48Z"/>
    <path class="cls-21" d="M712.74,639.77c-2.28,3.97-5.34,7.24-9.17,9.81-.54,.15-1.01,.15-1.42,0-.77,.71-1.56,1.3-2.37,1.74-6.23-4.35-12.61-8.41-19.14-12.18-3.4-2.31-6.83-4.57-10.28-6.8-.77-.51-1.62-.77-2.53-.79,.61-.41,1.24-.84,1.9-1.27-.07-.19-.17-.34-.32-.47-4.36-2.23-8.69-4.55-12.97-6.96-1.61-.77-3.3-1.24-5.06-1.42,4.44-2.75,8.98-5.39,13.6-7.91-.04,.23,.01,.44,.16,.63,.31-.6,.52-1.23,.63-1.9,.69,.9,1.37,1.79,2.06,2.69,.52,.16,1.04,.21,1.58,.16v1.27c.96-.05,1.9,0,2.85,.16,.27,.32,.37,.69,.32,1.11,.47-.08,.89,.02,1.27,.32,1.59,1.74,3.49,3.01,5.69,3.8,1.17,.69,2.22,1.54,3.16,2.53,1,.55,2.06,.97,3.16,1.27,1.36,1.21,2.84,2.26,4.43,3.16,.79,.5,1.63,.82,2.53,.95v1.27c1.02,.34,2.08,.55,3.16,.63v1.27c.66-.09,1.3,.01,1.9,.32,.95,.79,2.01,1.42,3.16,1.9,.47,.42,.69,.95,.63,1.58,.63,.05,1.16-.16,1.58-.63,.66,.47,.97,1.1,.95,1.9,.66-.09,1.3,.01,1.9,.32,.45,.79,.98,1.53,1.58,2.21,.25-.39,.4-.81,.47-1.27,.35,.71,.83,1.35,1.42,1.9,.71-.74,1.19-.53,1.42,.63,.47-.24,.52-.5,.16-.79,.57-.1,.67-.31,.32-.63,.37-.16,.63-.42,.79-.79,.12,.18,.28,.28,.47,.32Z"/>
    <path class="cls-73" d="M547.94,612.89c4.19,.65,4.82,2.5,1.9,5.54-2.52,.33-3.73-.78-3.64-3.32,.53-.79,1.11-1.53,1.74-2.21Z"/>
    <path class="cls-73" d="M690.92,614.15c1.06,3.34-.1,4.87-3.48,4.59-2.09-1.76-2.09-3.5,0-5.22,1.28-.51,2.44-.3,3.48,.63Z"/>
    <path class="cls-9" d="M224.02,614.47c1.74-.21,2.43,.53,2.06,2.21-.75,1.09-1.59,1.19-2.53,.32-.23-.93-.07-1.77,.47-2.53Z"/>
    <path class="cls-24" d="M651.38,621.43c1.76,.18,3.45,.66,5.06,1.42,4.28,2.4,8.61,4.72,12.97,6.96,.15,.13,.25,.29,.32,.47-.65,.43-1.29,.85-1.9,1.27-2.07,1.01-4.12,2.06-6.17,3.16-6.91-4.06-14.03-7.75-21.35-11.07-.15-.44-.46-.66-.95-.63-.05-.54,0-1.06,.16-1.58,2.21,1.66,4.69,2.45,7.43,2.37,1.45-.87,2.92-1.66,4.43-2.37Z"/>
    <path class="cls-99" d="M320.5,534.12c.06,.51-.1,.93-.47,1.27-.05,34.01-.21,67.96-.47,101.86,.04-33.85-.01-67.7-.16-101.54,.07-.75,.44-1.28,1.11-1.58Z"/>
    <path class="cls-38" d="M194.28,629.65c-1.53,.76-3.12,1.39-4.74,1.9-2.22,.18-4.43,.39-6.64,.63-4.53-.38-9.07-.7-13.6-.95-2.2-.27-4.42-.37-6.64-.32,3.8-.3,7.59-.41,11.39-.32,.41,.19,.83,.35,1.27,.47,1.9,.05,3.8,.11,5.69,.16,2.06-.01,4.06-.22,6.01-.63,1.07,.83,2.07,.72,3.01-.32,.23,.18,.49,.28,.79,.32,1.09-.51,2.25-.83,3.48-.95Z"/>
    <path class="cls-4" d="M640.31,623.64c7.32,3.32,14.44,7.01,21.35,11.07,2.04-1.1,4.1-2.16,6.17-3.16,.91,.02,1.76,.28,2.53,.79,3.45,2.23,6.88,4.5,10.28,6.8,6.53,3.77,12.91,7.83,19.14,12.18,.81-.44,1.6-1.02,2.37-1.74,.41,.15,.89,.15,1.42,0-3.2,2.55-6.79,4.45-10.76,5.69-1.26-.54-2.37-.33-3.32,.63-.84-.5-1.58-.4-2.21,.32-1.02-.55-1.92-1.29-2.69-2.21-1-.54-2.06-.97-3.16-1.27-2.8-2.01-5.65-3.96-8.54-5.85-.52-.15-1.04-.21-1.58-.16v-1.27c-.66,.09-1.3,0-1.9-.32l-1.9-1.9c-.6-.31-1.23-.41-1.9-.32,.05-.42-.05-.79-.32-1.11-1.33-.64-2.7-1.22-4.11-1.74-1.89-1.79-4-3.26-6.33-4.43-1.41-1.44-3.1-2.39-5.06-2.85v-1.27c-.87,.1-1.71,0-2.53-.32,.84-.42,.84-.84,0-1.27-1.64-.72-3.33-1.25-5.06-1.58,.08-.47-.02-.89-.32-1.27-1.94-.5-2.04-1.18-.32-2.06-.67-1.06-1.14-1-1.42,.16-.57-.56-.52-1.09,.16-1.58Z"/>
    <path class="cls-11" d="M717.17,623.33c.28,1.74,.86,3.43,1.74,5.06,.7,8.79-1.2,17.02-5.69,24.67-8.88,13.7-21.17,22.93-36.85,27.68-9,2.38-17.97,4.91-26.89,7.59-12.48,4.46-23.08,11.69-31.79,21.67-6.61,8.47-12.83,17.22-18.66,26.26-15.63,21.13-36.66,32.36-63.11,33.69-7.3,.27-14.57-.05-21.83-.95-12.18-1.54-24.31-3.17-36.38-4.9,2.93-.31,5.67-1.15,8.22-2.53,4.83-1.12,9.68-2.18,14.55-3.16,10.84-2.3,21.8-3.46,32.9-3.48,11.53,1.09,22.81,.03,33.85-3.16,7.5-1.8,14.14-5.17,19.93-10.12,6.14-4.79,10.67-10.8,13.6-18.03,.48-.53,.79-1.16,.95-1.9,3.01-7.4,5.43-14.99,7.28-22.78,.73-2.08,1.47-4.19,2.21-6.33,1.53-4.43,3.64-8.54,6.33-12.34,5.59-7.48,12.65-13.07,21.19-16.77,6.78-2.84,13.85-4.58,21.19-5.22,7.06-.1,14.13-.21,21.19-.32,4.08-.28,7.98-1.17,11.7-2.69,3.97-1.25,7.55-3.14,10.76-5.69,3.83-2.57,6.89-5.84,9.17-9.81,1.37-1.78,2.32-3.79,2.85-6.01,1.26-3.32,1.79-6.8,1.58-10.44Z"/>
    <path class="cls-18" d="M617.53,680.26c-2.69,3.79-4.8,7.91-6.33,12.34-.31-.15-.62-.31-.95-.47,.39-.73,.81-1.42,1.27-2.06,0-.48-.22-.85-.63-1.11-25.21-16.01-50.41-31.98-75.6-47.92l-.95-.95c.71-.37,.71-.79,0-1.27-.37-3.43-.37-6.91,0-10.44,.52,0,.94-.2,1.27-.63,.42,.48,.95,.69,1.58,.63,.12,1.53,.96,2.16,2.53,1.9v1.27c1.76,.2,3.23,.94,4.43,2.21,.6,.31,1.23,.41,1.9,.32v1.27c1.15,.71,2.41,1.14,3.8,1.27v1.27c2.03,.43,3.93,1.17,5.69,2.21,.47,.42,.69,.95,.63,1.58,.47-.08,.89,.02,1.27,.32,.84,.63,1.69,1.27,2.53,1.9,.6,.31,1.23,.41,1.9,.32v1.27c3.26,1.52,6.43,3.21,9.49,5.06v1.27c.97-.1,1.92,0,2.85,.32,.36,.29,.36,.56,0,.79,.61,.5,1.24,.98,1.9,1.42,.21,.42,.42,.84,.63,1.27,1.09-.82,2.14-.77,3.16,.16-.51,.27-.62,.59-.32,.95,1.14,.84,2.41,1.41,3.8,1.74,.84,.52,1.26,1.26,1.27,2.21,.66-.09,1.3,0,1.9,.32,.74,.93,1.64,1.25,2.69,.95,.82,.85,1.82,1.38,3.01,1.58,.42,.63,.84,1.27,1.27,1.9,1.3,.41,2.57,.89,3.8,1.42-.15,.13-.25,.29-.32,.47,1.2,.25,2.15,.89,2.85,1.9,.6,.31,1.23,.41,1.9,.32v1.27h1.9v1.27h1.9v1.27c.66-.09,1.3,0,1.9,.32l1.9,1.9c.82,.31,1.66,.41,2.53,.32v1.27c1.48,.42,2.95,.84,4.43,1.27v1.9h1.27Z"/>
    <path class="cls-88" d="M593.81,631.55c3.91-.39,7.03,.98,9.33,4.11,.21,.63,.21,1.27,0,1.9-1.77,1.23-3.61,2.33-5.54,3.32-2.88-.15-5.26-1.36-7.12-3.64-1.08-1.51-1.03-2.93,.16-4.27,1.01-.63,2.07-1.11,3.16-1.42Z"/>
    <path class="cls-58" d="M639.36,623.01c.48-.02,.8,.19,.95,.63-.68,.49-.73,1.02-.16,1.58,.28-1.16,.76-1.21,1.42-.16-1.73,.87-1.62,1.56,.32,2.06,.29,.38,.4,.8,.32,1.27,1.73,.34,3.42,.86,5.06,1.58,.84,.42,.84,.84,0,1.27,.82,.31,1.66,.42,2.53,.32v1.27c1.96,.45,3.65,1.4,5.06,2.85,2.33,1.16,4.44,2.64,6.33,4.43,1.41,.52,2.78,1.1,4.11,1.74,.27,.32,.37,.69,.32,1.11,.66-.09,1.3,0,1.9,.32l1.9,1.9c.6,.31,1.23,.41,1.9,.32v1.27c.54-.05,1.07,0,1.58,.16,2.89,1.89,5.74,3.84,8.54,5.85,1.1,.3,2.16,.72,3.16,1.27,.77,.93,1.66,1.66,2.69,2.21,.64-.71,1.38-.82,2.21-.32,.96-.96,2.06-1.17,3.32-.63-3.72,1.52-7.62,2.41-11.7,2.69-7.06,.1-14.13,.21-21.19,.32-7.35,.64-14.41,2.38-21.19,5.22-.69-.18-1.42-.18-2.21,0v-.95h-1.27c.05-.42-.05-.79-.32-1.11-.93-.46-1.88-.83-2.85-1.11,5.36-3,10.74-6,16.13-9.02-3.96-1.82-7.76-3.88-11.39-6.17,.56-.44,1.19-.81,1.9-1.11,.22-.34,.38-.71,.47-1.11,.16-6.64,.21-13.28,.16-19.93Z"/>
    <path class="cls-52" d="M156.64,631.23c-3.78,.62-7.58,1.36-11.39,2.21,3.63-1.38,7.42-2.12,11.39-2.21Z"/>
    <path class="cls-1" d="M169.29,631.23c4.54,.25,9.07,.57,13.6,.95,2.21-.25,4.43-.46,6.64-.63-.8,.28-1.64,.54-2.53,.79-5.98,.19-11.89-.18-17.71-1.11Z"/>
    <path class="cls-73" d="M561.86,633.76c2.75-.24,3.59,.87,2.53,3.32-3.1,.54-3.95-.57-2.53-3.32Z"/>
    <path class="cls-67" d="M534.34,638.83c.71,.47,.71,.9,0,1.27l.95,.95c25.2,15.94,50.4,31.92,75.6,47.92,.41,.25,.62,.62,.63,1.11-.46,.64-.88,1.32-1.27,2.06,.33,.16,.64,.32,.95,.47-.75,2.14-1.48,4.24-2.21,6.33-.21-.09-.42-.2-.63-.32-.26,1.28-.9,1.54-1.9,.79-2.2-1.93-4.63-3.51-7.28-4.74-1.29-1.4-2.82-2.4-4.59-3.01-5.23-3.57-10.5-6.85-15.82-9.81-2.22-2.04-4.7-3.67-7.43-4.9-1.13-1.03-2.34-1.92-3.64-2.69l-.32,.32c-.54-1.09-1.02-2.2-1.42-3.32-.58-.24-1.11-.55-1.58-.95-1.23,.04-2.44-.01-3.64-.16-8.41-5.55-16.9-10.99-25.46-16.29,.09-.73-.17-1.41-.79-2.06-.9,.85-1.7,1.8-2.37,2.85-.39,.24-.81,.34-1.27,.32,1.36-1.03,2.26-2.4,2.69-4.11,.42-3.68,.58-7.37,.47-11.07,.02-.35,.12-.67,.32-.95Z"/>
    <path class="cls-65" d="M587.16,648.63c-1.54-.72-3.13-1.35-4.74-1.9-1.3-.91-2.67-1.76-4.11-2.53-.41-1.42-.41-2.79,0-4.11-.09,.57,.02,1.09,.32,1.58,2.61-2.76,5.56-3.24,8.86-1.42,2.08,1.26,2.66,3,1.74,5.22-1.15,.78-1.84,1.83-2.06,3.16Z"/>
    <path class="cls-86" d="M636.83,645.15c3.63,2.29,7.42,4.35,11.39,6.17-5.4,3.01-10.77,6.02-16.13,9.02-5.33,2.53-10.39,5.54-15.18,9.02-.43,.28-.91,.43-1.42,.47-10.1-4.31-20.17-8.69-30.21-13.13-3.18-1.38-6.13-3.06-8.86-5.06,.08-.4,.29-.71,.63-.95,2.29-.33,4.5-.17,6.64,.47,1.82,.76,3.51,.5,5.06-.79-1.51-1.18-3.2-2.02-5.06-2.53-.5-.3-.93-.67-1.27-1.11,1.62,.55,3.2,1.18,4.74,1.9,7.17,3.37,14.34,6.75,21.51,10.12,1.02,.39,2.08,.34,3.16-.16,8.34-4.49,16.67-8.97,24.99-13.44Z"/>
    <path class="cls-15" d="M429.31,649.58h44.6c-50.19,.42-100.38,.42-150.57,0,6.17,.1,12.29,0,18.35-.32,12.8-.05,26.94-.15,42.39-.32,15.07,.48,30.15,.69,45.23,.63Z"/>
    <path class="cls-43" d="M475.18,648.95c.1,.21,.21,.42,.32,.63h-46.18v-.32c16.61-.19,31.9-.29,45.87-.32Z"/>
    <path class="cls-64" d="M664.35,646.73c2.17,.01,2.96,1.07,2.37,3.16-.34,1.46-1.24,1.94-2.69,1.42-1.74-1.67-1.64-3.19,.32-4.59Z"/>
    <path class="cls-41" d="M608.99,698.93c-1.84,7.79-4.27,15.38-7.28,22.78-16.69-10.51-33.35-21.11-49.98-31.79-.59-.22-1.07-.07-1.42,.47-.55-.89-1.23-1.63-2.06-2.21-3-5.57-5.47-11.37-7.43-17.4-2.15-4.4-4.2-8.83-6.17-13.29-1.77-1.7-3.88-2.33-6.33-1.9,.79-.28,1.64-.49,2.53-.63,.45,.03,.87-.08,1.27-.32,.68-1.05,1.47-2,2.37-2.85,.62,.64,.88,1.33,.79,2.06,8.57,5.3,17.05,10.74,25.46,16.29,1.2,.15,2.41,.2,3.64,.16,.47,.4,1,.71,1.58,.95,.4,1.12,.88,2.23,1.42,3.32l.32-.32c1.29,.77,2.51,1.66,3.64,2.69,2.74,1.23,5.21,2.87,7.43,4.9,5.31,2.96,10.58,6.23,15.82,9.81,1.77,.6,3.3,1.6,4.59,3.01,2.64,1.23,5.07,2.82,7.28,4.74,1,.75,1.64,.49,1.9-.79,.22,.11,.43,.22,.63,.32Z"/>
    <path class="cls-76" d="M354.35,655.59c7.33,.26,14.71,.42,22.14,.47-.21,.1-.42,.21-.63,.32-15.6,.1-31.21,.21-46.82,.32-1.1,.86-1.21,1.81-.32,2.85,62.84-.15,122.3-.09,178.41,.16,4.11-.05,8.22-.1,12.34-.16,.51-.08,.83-.34,.95-.79v-1.27c.01-.34,.12-.66,.32-.95-.61-.26-1.24-.41-1.9-.47,3.22-.05,6.38-.21,9.49-.47,2.44-.43,4.55,.2,6.33,1.9,1.96,4.46,4.02,8.89,6.17,13.29,1.96,6.03,4.44,11.83,7.43,17.4,.87,1.85,1.82,3.64,2.85,5.38,1.71,4.03,3.45,8.03,5.22,12.02,.4,1.14,.51,2.3,.32,3.48-.22,.38-.48,.69-.79,.95-.41-.08-.72,.03-.95,.32h-.63c-87.41,.05-174.82,0-262.24-.16-.89-.53-1.84-.9-2.85-1.11-.63-.53-1.27-1.05-1.9-1.58-.15-.29-.26-.61-.32-.95,.48-1.93,1.06-3.82,1.74-5.69,6.62-14.62,13.16-29.28,19.61-43.97,3.16-3.13,6.69-3.61,10.6-1.42,11.81,.35,23.62,.41,35.43,.16Z"/>
    <path class="cls-23" d="M534.02,614.47c.21,1.64,.42,3.33,.63,5.06,.48,.25,1.01,.56,1.58,.95,.28,.26,.39,.58,.32,.95,.66-.09,1.3,.01,1.9,.32,4.19,3.2,8.61,5.99,13.29,8.38,.39,.37,.71,.79,.95,1.27,1.47,.73,2.95,1.46,4.43,2.21,.27,.32,.37,.69,.32,1.11,.84,.21,1.69,.42,2.53,.63v1.27c.96,.59,1.95,1.11,3.01,1.58,.18-.17,.39-.27,.63-.32,1.41,.89,2.83,1.79,4.27,2.69,.27,.32,.37,.69,.32,1.11,1.05-.08,2,.19,2.85,.79,2.66,1.64,5.19,3.44,7.59,5.38,2.07,.56,3.75,1.66,5.06,3.32-2.14-.65-4.36-.8-6.64-.47-.34,.23-.55,.55-.63,.95,2.73,2,5.68,3.69,8.86,5.06,10.04,4.43,20.11,8.81,30.21,13.13,.52-.04,.99-.2,1.42-.47,4.79-3.48,9.85-6.48,15.18-9.02,.97,.28,1.92,.65,2.85,1.11,.27,.32,.37,.69,.32,1.11h1.27v.95c.79-.18,1.53-.18,2.21,0-8.54,3.69-15.6,9.28-21.19,16.77h-1.27v-1.9c-1.48-.42-2.95-.84-4.43-1.27v-1.27c-.87,.1-1.71,0-2.53-.32l-1.9-1.9c-.6-.31-1.23-.41-1.9-.32v-1.27h-1.9v-1.27h-1.9v-1.27c-.66,.09-1.3,0-1.9-.32-.7-1.01-1.64-1.64-2.85-1.9,.07-.19,.17-.34,.32-.47-1.23-.53-2.49-1.01-3.8-1.42-.42-.63-.84-1.27-1.27-1.9-1.18-.2-2.19-.73-3.01-1.58-1.05,.3-1.95-.02-2.69-.95-.6-.31-1.23-.41-1.9-.32,0-.96-.43-1.7-1.27-2.21-1.39-.33-2.65-.9-3.8-1.74-.3-.36-.2-.68,.32-.95-1.02-.93-2.08-.98-3.16-.16-.21-.42-.42-.84-.63-1.27-.66-.45-1.29-.92-1.9-1.42,.36-.23,.36-.5,0-.79-.93-.31-1.88-.42-2.85-.32v-1.27c-3.06-1.85-6.23-3.54-9.49-5.06v-1.27c-.66,.09-1.3,0-1.9-.32-.84-.63-1.69-1.27-2.53-1.9-.38-.29-.8-.4-1.27-.32,.05-.63-.16-1.16-.63-1.58-1.77-1.05-3.67-1.78-5.69-2.21v-1.27c-1.38-.13-2.65-.55-3.8-1.27v-1.27c-.66,.09-1.3-.01-1.9-.32-1.2-1.28-2.67-2.02-4.43-2.21v-1.27c-1.57,.26-2.41-.37-2.53-1.9-.63,.05-1.16-.16-1.58-.63-.32,.43-.75,.64-1.27,.63-.37,3.53-.37,7.01,0,10.44-.19,.28-.3,.6-.32,.95-.3-8.38-.3-16.82,0-25.31Z"/>
    <path class="cls-86" d="M519.78,656.86l.63,.63v1.27c-.91,.28-1.86,.39-2.85,.32-62.78-.27-125.52-.42-188.22-.47-.15-.41-.15-.89,0-1.42,63.48,.02,126.95-.08,190.43-.32Z"/>
    <path class="cls-6" d="M329.36,657.17c-.15,.54-.15,1.01,0,1.42,62.69,.05,125.43,.21,188.22,.47-1,.21-2.05,.32-3.16,.32-61.89-.26-123.79-.42-185.68-.47-.3-.73-.09-1.31,.63-1.74Z"/>
    <path class="cls-71" d="M354.35,655.59h173.98c-3.11,.26-6.27,.42-9.49,.47,.66,.06,1.29,.22,1.9,.47-.2,.29-.3,.61-.32,.95l-.63-.63c-21.3-.21-42.65-.32-64.06-.32-42.18,0-84.3,.21-126.37,.63-.72,.43-.93,1.01-.63,1.74,61.9,.06,123.79,.22,185.68,.47,1.11,0,2.17-.1,3.16-.32,.98,.08,1.93-.03,2.85-.32-.12,.45-.44,.71-.95,.79-4.11,.05-8.22,.1-12.34,.16-56.1-.25-115.57-.3-178.41-.16-.89-1.04-.78-1.99,.32-2.85,15.6-.1,31.21-.21,46.82-.32,.21-.1,.42-.21,.63-.32-7.43-.05-14.82-.21-22.14-.47Z"/>
    <path class="cls-29" d="M519.78,656.86c-63.48,.23-126.95,.34-190.43,.32,42.07-.42,84.19-.64,126.37-.63,21.41,0,42.76,.1,64.06,.32Z"/>
    <path class="cls-83" d="M342.96,661.92h12.65c-1.84,8.51-3.95,16.94-6.33,25.31-4.31,.31-8.63,.42-12.97,.32,2.16-8.55,4.38-17.09,6.64-25.62Z"/>
    <path class="cls-83" d="M375.86,661.92h29.73c-.84,8.54-1.69,17.08-2.53,25.62h-31.63c-.05-.96,0-1.9,.16-2.85,1.61-7.57,3.03-15.16,4.27-22.78Z"/>
    <path class="cls-83" d="M408.12,661.92h13.92c-.34,8.55-.66,17.09-.95,25.62-5.06,.32-10.12,.42-15.18,.32,1.25-8.6,1.98-17.25,2.21-25.94Z"/>
    <path class="cls-83" d="M424.57,661.92h12.02v25.94h-12.65c.37-8.64,.58-17.29,.63-25.94Z"/>
    <path class="cls-83" d="M438.8,661.92h32.27c.3,5.38,.62,10.76,.95,16.13-11.08,.1-22.15,0-33.21-.32v-15.82Z"/>
    <path class="cls-83" d="M490.37,662.23h12.34c.64,3.88,1.12,7.78,1.42,11.7,1.5,4.52,2.39,9.16,2.69,13.92h-13.29c-.98-8.55-2.03-17.09-3.16-25.62Z"/>
    <path class="cls-31" d="M313.54,662.23h26.57c-2.25,8.44-4.57,16.88-6.96,25.31-9.91,.05-19.82,0-29.73-.16,3.24-8.44,6.62-16.82,10.12-25.15Z"/>
    <path class="cls-31" d="M473.92,662.23h13.29c.81,6.55,1.71,13.08,2.69,19.61,.24,1.9,.34,3.8,.32,5.69-2.35,.21-4.72,.31-7.12,.32-2.4,0-4.77-.11-7.12-.32-1.02-8.4-1.71-16.83-2.06-25.31Z"/>
    <path class="cls-31" d="M504.6,662.55c7.01-.37,14.08-.42,21.19-.16,.55,.15,1.08,.36,1.58,.63,.99,1.19,1.78,2.51,2.37,3.95,2.76,6.79,5.35,13.65,7.75,20.56h-28.47c-1.24-8.42-2.72-16.75-4.43-24.99Z"/>
    <path class="cls-44" d="M331.57,666.35c2.21,.18,4.43,.34,6.64,.47,.15,.13,.25,.29,.32,.47-7.8,.42-15.61,.42-23.41,0,.72-.26,1.46-.41,2.21-.47,4.8-.05,9.54-.21,14.23-.47Z"/>
    <path class="cls-42" d="M193.97,666.66c1.14,1.02,1.24,2.18,.32,3.48-3.05,.47-3.84-.69-2.37-3.48,.72-.41,1.4-.41,2.06,0Z"/>
    <path class="cls-47" d="M193.97,666.66c1.15,2.12,.52,3.17-1.9,3.16-.05-.96,0-1.9,.16-2.85,.54-.29,1.12-.39,1.74-.32Z"/>
    <path class="cls-88" d="M82.94,669.51c5.01-.53,7.38,1.69,7.12,6.64-1.73,3.86-4.53,4.87-8.38,3.01-2.18-1.84-2.76-4.11-1.74-6.8,.85-1.13,1.85-2.08,3.01-2.85Z"/>
    <path class="cls-2" d="M562.17,670.77c2.86-.24,4.18,1.02,3.95,3.8-1.39,1.53-2.86,1.64-4.43,.32-.77-1.52-.61-2.89,.47-4.11Z"/>
    <path class="cls-65" d="M734.89,672.04c3.01-.1,5.28,1.16,6.8,3.8,1.73,5.6-.27,8.97-6.01,10.12-5.56-1.52-7.35-5-5.38-10.44,1.35-1.44,2.88-2.59,4.59-3.48Z"/>
    <path class="cls-83" d="M357.82,661.92h15.82c-1.8,8.52-3.49,17.06-5.06,25.62h-16.13c.78-4.91,1.84-9.76,3.16-14.55,4.85,.15,9.7-.01,14.55-.47-4.61-.37-9.24-.63-13.92-.79-.1-.26-.21-.53-.32-.79,.65-3.01,1.28-6.02,1.9-9.02Z"/>
    <path class="cls-39" d="M220.85,673.31c2.65,.95,5.18,2.17,7.59,3.64,1.06,.64,1.9,1.48,2.53,2.53-3.36,3.19-7.1,5.87-11.23,8.07-2.77-1.47-5.57-2.89-8.38-4.27-.67-.28-1.09-.75-1.27-1.42,.76-1.24,1.71-2.34,2.85-3.32,2.66-1.75,5.29-3.49,7.91-5.22Z"/>
    <path class="cls-14" d="M441.34,678.68h31v.95c-10.32-.52-20.65-.84-31-.95Z"/>
    <path class="cls-31" d="M441.34,678.68c10.35,.11,20.68,.43,31,.95,.02,1.17,.12,2.33,.32,3.48-10.65-.1-21.3,0-31.95,.32-.59,.03-1.07-.18-1.42-.63-.21-1.16-.21-2.32,0-3.48,.57-.55,1.25-.76,2.06-.63Z"/>
    <path class="cls-93" d="M374.91,682.8c6.01-.05,12.02,0,18.03,.16,3.08,.04,6.14,.31,9.17,.79-9.59,.42-19.19,.42-28.79,0,.52-.38,1.05-.7,1.58-.95Z"/>
    <path class="cls-31" d="M439.75,684.06c10.98-.1,21.94,0,32.9,.32,.24,1.13,.24,2.24,0,3.32-11.18,.16-22.35,.21-33.53,.16-.13-1.34,.08-2.61,.63-3.8Z"/>
    <path class="cls-10" d="M744.38,686.27c2.39-.26,3.02,.64,1.9,2.69-.7,.26-1.27,.1-1.74-.47-.16-.73-.21-1.47-.16-2.21Z"/>
    <path class="cls-37" d="M548.25,688.17c.83,.59,1.51,1.32,2.06,2.21,.36-.54,.83-.7,1.42-.47,16.63,10.69,33.29,21.28,49.98,31.79-.15,.73-.47,1.37-.95,1.9-.64,.34-1.07,.86-1.27,1.58-.21-.42-.42-.84-.63-1.27-.19,.76-.55,1.4-1.11,1.9-.67-.88-.62-1.72,.16-2.53-.22-.76-.53-.76-.95,0-.74-1.48-1.33-1.27-1.74,.63-.73-.61-1.31-1.35-1.74-2.21-.6-.31-1.23-.41-1.9-.32v-1.9c-1.57,.26-2.41-.37-2.53-1.9h-1.27v-1.27c-1.24-.15-2.4,.06-3.48,.63-.53-.37-1.05-.74-1.58-1.11,.51-.33,.72-.81,.63-1.42h-1.9v-1.9c-1.97-.53-3.97-1-6.01-1.42-.66-.15-.77-.53-.32-1.11-.53-1.3-1.32-1.51-2.37-.63-.34-.04-.6-.2-.79-.47,.58-.45,1.21-.82,1.9-1.11-1.33-.41-2.65-.41-3.95,0-.41-.58-.89-1.1-1.42-1.58-.49,.27-.97,.16-1.42-.32-.17-.52-.01-.94,.47-1.27-.82-.31-1.66-.41-2.53-.32v-1.27c.47,.08,.89-.02,1.27-.32-1.03-.31-2.09-.42-3.16-.32v-1.27c-.63,.05-1.16-.16-1.58-.63-.43,.38-.8,.8-1.11,1.27-.47-.21-.84-.53-1.11-.95,.47-.42,.69-.95,.63-1.58-.63,.05-1.16-.16-1.58-.63-.32,.38-.69,.69-1.11,.95-1.02-.39-1.87-1.02-2.53-1.9-.14,.77-.4,.82-.79,.16l.32-.32c-.4-.1-.77-.26-1.11-.47-.09-.58-.35-1.05-.79-1.42l.32-.32c-.55-.61-1.08-1.19-1.58-1.74-1.02-1.73-1.97-3.52-2.85-5.38Z"/>
    <path class="cls-54" d="M454.94,690.7h-63.27c2.55-.22,5.13-.43,7.75-.63,19.11,.26,37.41,.26,54.88,0,.32,.11,.53,.32,.63,.63Z"/>
    <path class="cls-97" d="M391.67,690.7h63.27c.52,.79,.99,1.64,1.42,2.53,.58,2.22,1.16,4.43,1.74,6.64,.47,2.04,1,4.04,1.58,6.01-16.92-.1-33.8,0-50.61,.32-7.6,.21-15.09,0-22.46-.63,1.64-4.97,3.32-9.93,5.06-14.87Z"/>
    <path class="cls-2" d="M578.94,690.39c2.95-.16,4.16,1.21,3.64,4.11-1.4,1.23-2.98,1.55-4.74,.95-.74-.94-.95-1.99-.63-3.16,.65-.59,1.22-1.22,1.74-1.9Z"/>
    <path class="cls-8" d="M677.32,696.08c6.25-.23,8.84,2.72,7.75,8.86-2.48,3.76-5.7,4.5-9.65,2.21-1.42-1.18-2.05-2.71-1.9-4.59,.03-2.92,1.3-5.08,3.8-6.48Z"/>
    <path class="cls-17" d="M551.1,693.55c.5,.55,1.03,1.13,1.58,1.74l-.32,.32c.44,.37,.71,.84,.79,1.42,.34,.22,.71,.38,1.11,.47l-.32,.32c.39,.66,.65,.61,.79-.16,.66,.88,1.51,1.51,2.53,1.9,.41-.26,.78-.57,1.11-.95,.42,.47,.95,.69,1.58,.63,.05,.63-.16,1.16-.63,1.58,.27,.42,.64,.74,1.11,.95,.31-.47,.68-.89,1.11-1.27,.42,.47,.95,.69,1.58,.63v1.27c1.08-.1,2.13,0,3.16,.32-.38,.29-.8,.4-1.27,.32v1.27c.87-.1,1.71,0,2.53,.32-.49,.33-.65,.75-.47,1.27,.46,.48,.93,.59,1.42,.32,.53,.48,1.01,1.01,1.42,1.58,1.3-.41,2.62-.41,3.95,0-.68,.29-1.32,.66-1.9,1.11,.19,.28,.46,.43,.79,.47,1.05-.88,1.84-.66,2.37,.63-.46,.58-.35,.95,.32,1.11,2.04,.42,4.04,.9,6.01,1.42v1.9h1.9c.09,.62-.12,1.09-.63,1.42,.53,.37,1.05,.74,1.58,1.11,1.08-.57,2.24-.78,3.48-.63v1.27h1.27c.12,1.52,.96,2.16,2.53,1.9v1.9c.66-.09,1.3,0,1.9,.32,.43,.87,1.01,1.6,1.74,2.21,.41-1.9,1-2.11,1.74-.63,.41-.76,.73-.76,.95,0-.77,.81-.83,1.65-.16,2.53,.55-.5,.92-1.14,1.11-1.9,.21,.42,.42,.84,.63,1.27,.2-.72,.62-1.25,1.27-1.58-2.93,7.23-7.46,13.24-13.6,18.03-.48,0-.85,.22-1.11,.63-.64-.53-1.16-1.16-1.58-1.9l-.32,.32c-11.01-7.07-22.03-14.03-33.06-20.88-1.1-.73-2.15-1.52-3.16-2.37,.21-.1,.42-.21,.63-.32-13.12-.35-26.41-.51-39.86-.47,13.87-.31,27.79-.36,41.76-.16,1.08-.09,2.14-.3,3.16-.63,2.9-1.16,3.64-3.11,2.21-5.85,.31-.26,.57-.57,.79-.95,.19-1.18,.09-2.34-.32-3.48-1.77-3.99-3.51-7.99-5.22-12.02Z"/>
    <path class="cls-25" d="M458.1,699.88c.94,1.99,1.58,4.1,1.9,6.33h-50.93c16.82-.32,33.69-.42,50.61-.32-.59-1.97-1.11-3.97-1.58-6.01Z"/>
    <path class="cls-48" d="M386.61,705.57c7.37,.63,14.86,.84,22.46,.63h6.01c-9.54,.32-19.14,.42-28.79,.32-.08-.41,.03-.72,.32-.95Z"/>
    <path class="cls-45" d="M296.46,715.69c-2.41,.99-4.72,.83-6.96-.47-2.54-2.18-3.28-4.76-2.21-7.75,.63,.53,1.27,1.05,1.9,1.58,.79,1.02,1.84,1.55,3.16,1.58,.56,.3,1.19,.41,1.9,.32"/>
    <path class="cls-40" d="M250.59,707.79c2.99-.06,5.83,.52,8.54,1.74,2.7,2.98,2.17,5.3-1.58,6.96-3.48,.61-6.95,.61-10.44,0-1.14-.36-2.2-.89-3.16-1.58-1.59-2.44-1.06-4.33,1.58-5.69,1.68-.65,3.37-1.13,5.06-1.42Z"/>
    <path class="cls-13" d="M289.18,709.05c1,.21,1.95,.58,2.85,1.11,87.41,.16,174.82,.21,262.24,.16-87.25,.32-174.56,.42-261.92,.32-1.32-.03-2.38-.56-3.16-1.58Z"/>
    <path class="cls-70" d="M554.26,710.32h.63c-86.78,.63-173.66,.84-260.65,.63-.71,.09-1.34-.01-1.9-.32,87.36,.1,174.67,0,261.92-.32Z"/>
    <path class="cls-87" d="M146.83,712.21c4.57,.07,6.2,2.28,4.9,6.64-2.69,3.36-5.33,3.36-7.91,0-1.02-3.21-.02-5.43,3.01-6.64Z"/>
    <path class="cls-101" d="M508.71,716.64c13.45-.04,26.73,.12,39.86,.47-.21,.1-.42,.21-.63,.32,1.01,.85,2.07,1.64,3.16,2.37,11.03,6.85,22.04,13.8,33.06,20.88l.32-.32c.42,.73,.95,1.37,1.58,1.9,.26-.42,.63-.63,1.11-.63-5.79,4.95-12.43,8.32-19.93,10.12-.2-.03-.35-.14-.47-.32-1.83,.58-3.63,1.01-5.38,1.27,.1-.45,.04-.88-.16-1.27-.6-.31-1.23-.41-1.9-.32,.22-1.06-.15-1.8-1.11-2.21-.65,.29-1.33,.4-2.06,.32v-1.27h-2.53v-1.27c.33,.05,.65,0,.95-.16-.77-.78-1.67-1.36-2.69-1.74-.33,.51-.81,.72-1.42,.63v-1.27c-1.48-.42-2.95-.84-4.43-1.27,0-1.27-.63-1.9-1.9-1.9,.08-.47-.02-.89-.32-1.27-.67-.31-1.31-.67-1.9-1.11-.71,.14-1.45,.3-2.21,.47v-1.27c-.65,.11-1.22,.11-1.74,0,.22-.57,.38-1.21,.47-1.9-.69-.06-1.32-.27-1.9-.63-.37,.13-.69,.34-.95,.63-.08-1.02-.55-1.76-1.42-2.21-.13,.15-.29,.25-.47,.32-.66-.5-1.13-1.13-1.42-1.9-.31,.47-.68,.89-1.11,1.27-.42-.47-.95-.69-1.58-.63v-1.27c.33,.05,.65,0,.95-.16-.79-.67-1.63-.83-2.53-.47-.77-.23-1.51-.54-2.21-.95,1.22-.2,1.44-.68,.63-1.42-.42,.03-.84,.18-1.27,.47-.85-.92-1.91-1.34-3.16-1.27-.09-.62,.12-1.09,.63-1.42-.63-.8-1.37-.96-2.21-.47-.91-.27-1.64-.8-2.21-1.58-.82-.31-1.66-.41-2.53-.32v-1.27h-2.53v-1.27c.84,.27,1.68,.42,2.53,.47-.84-.53-1.69-1.05-2.53-1.58-.84,.1-1.69,.21-2.53,.32-.11-.52-.11-1.09,0-1.74-1.12-.17-2.12-.59-3.01-1.27-1.43,1.13-3.07,1.87-4.9,2.21,1.67-1.63,3.68-2.68,6.01-3.16Z"/>
    <path class="cls-62" d="M567.23,751.75c-11.03,3.19-22.32,4.25-33.85,3.16-1.43-.14-2.7-.71-3.8-1.74-.62-.16-1.26-.21-1.9-.16,.05-.63-.16-1.16-.63-1.58-1.02-.39-1.87-1.02-2.53-1.9-.6-.31-1.23-.41-1.9-.32v-1.27h-1.9v-1.27c-1.15,0-2.2-.31-3.16-.95-1.15-1.1-2.42-2.05-3.8-2.85-.6-.27-1.23-.27-1.9,0-.12-1.52-.96-2.16-2.53-1.9-.12-1.52-.96-2.16-2.53-1.9v-1.27c-.66,.09-1.3,0-1.9-.32-1.31-1.08-2.79-1.82-4.43-2.21v-1.27h-1.9v-1.27c-1.2,.13-2.14-.29-2.85-1.27l-.63,.63c-.38-.82-.8-1.61-1.27-2.37-1.09-.35-1.93-.03-2.53,.95,.31,.74,.95,1.37,1.9,1.9,1.5,.85,3.08,1.54,4.74,2.06v1.27c.84,.21,1.69,.42,2.53,.63v1.27c.66-.09,1.3,0,1.9,.32,.71,.66,1.55,1.08,2.53,1.27,1.49,1.69,3.28,2.9,5.38,3.64,.29,.54,.39,1.12,.32,1.74-2.24-1.28-4.56-2.44-6.96-3.48-1.41-1.18-2.88-2.29-4.43-3.32-2.32-1.37-4.64-2.74-6.96-4.11-.4-.41-.72-.89-.95-1.42-.35,.34-.67,.34-.95,0,.57-.35,.67-.78,.32-1.27-.47,.89-1.21,1.42-2.21,1.58,4.27-4.91,9.02-9.23,14.23-12.97,1.84-.35,3.47-1.09,4.9-2.21,.89,.67,1.89,1.09,3.01,1.27-.11,.65-.11,1.22,0,1.74,.84-.1,1.69-.21,2.53-.32,.84,.53,1.69,1.05,2.53,1.58-.85-.05-1.69-.21-2.53-.47v1.27h2.53v1.27c.87-.1,1.71,0,2.53,.32,.57,.78,1.31,1.31,2.21,1.58,.85-.48,1.58-.33,2.21,.47-.51,.33-.72,.81-.63,1.42,1.26-.07,2.31,.35,3.16,1.27,.42-.29,.84-.45,1.27-.47,.8,.75,.59,1.22-.63,1.42,.7,.4,1.44,.72,2.21,.95,.9-.35,1.74-.2,2.53,.47-.3,.15-.62,.21-.95,.16v1.27c.63-.05,1.16,.16,1.58,.63,.43-.38,.8-.8,1.11-1.27,.29,.77,.77,1.4,1.42,1.9,.19-.07,.34-.17,.47-.32,.87,.45,1.34,1.19,1.42,2.21,.26-.29,.58-.5,.95-.63,.58,.36,1.21,.58,1.9,.63-.09,.69-.25,1.33-.47,1.9,.52,.11,1.09,.11,1.74,0v1.27c.76-.18,1.5-.34,2.21-.47,.59,.43,1.22,.8,1.9,1.11,.29,.38,.4,.8,.32,1.27,1.27,0,1.9,.63,1.9,1.9,1.48,.42,2.95,.84,4.43,1.27v1.27c.62,.09,1.09-.12,1.42-.63,1.02,.38,1.92,.96,2.69,1.74-.3,.15-.62,.21-.95,.16v1.27h2.53v1.27c.72,.08,1.41-.03,2.06-.32,.96,.41,1.33,1.15,1.11,2.21,.66-.09,1.3,0,1.9,.32,.2,.39,.26,.81,.16,1.27,1.75-.26,3.55-.68,5.38-1.27,.12,.18,.28,.28,.47,.32Z"/>
    <path class="cls-88" d="M742.48,719.17c5.11-.43,7.58,1.89,7.43,6.96-1.48,3.45-4.06,4.67-7.75,3.64-4.73-3.72-4.62-7.25,.32-10.6Z"/>
    <path class="cls-40" d="M256.92,721.39c5.85-.34,11.33,.87,16.45,3.64,3.19,2.01,4.2,4.81,3.01,8.38-1.22,1.38-2.65,2.48-4.27,3.32-2.46,.93-4.99,1.56-7.59,1.9-4.98,.35-9.94,.14-14.87-.63-3.52-1.1-6.32-3.16-8.38-6.17-.69-1.59-.48-3.07,.63-4.43,2.36-3,5.47-4.74,9.33-5.22,1.94-.29,3.84-.55,5.69-.79Z"/>
    <path class="cls-76" d="M570.4,721.07c5.05,.05,6.11,2.1,3.16,6.17-3.09,1.46-4.88,.51-5.38-2.85-.03-1.69,.7-2.8,2.21-3.32Z"/>
    <path class="cls-75" d="M465.38,721.39c2.56,.19,3.19,1.4,1.9,3.64-2.98,.07-3.61-1.14-1.9-3.64Z"/>
    <path class="cls-95" d="M441.34,756.82c-5.87-1.73-11.67-3.68-17.4-5.85-11.6-4.9-23.3-9.54-35.11-13.92-3.26-.85-6.53-1.64-9.81-2.37-3.54-.69-7.12-1.37-10.76-2.06-2.43-1.5-4.86-3.03-7.28-4.59-.29,.36-.56,.36-.79,0-.3,.62-.72,1.15-1.27,1.58-.2-.3-.14-.56,.16-.79-.21-.05-.42-.1-.63-.16-1.66,.76-3.34,1.45-5.06,2.06,.43,.87,.22,1.03-.63,.47-.68,.44-1.42,.65-2.21,.63,6.81-3.78,14.09-6.31,21.83-7.59,2.15-.19,4.2,.02,6.17,.63,.5-.96,1.29-1.38,2.37-1.27,1.02,.32,2.08,.59,3.16,.79-.84,.21-.84,.42,0,.63-.84,.1-1.69,.21-2.53,.32,2.51,.36,5.04,.63,7.59,.79-.84,.21-1.69,.42-2.53,.63,.5,.25,1.02,.41,1.58,.47,2.13,1.71,4.34,3.29,6.64,4.74,.82,.36,1.67,.62,2.53,.79-.05,.42,.05,.79,.32,1.11,2.08,1.13,4.09,2.4,6.01,3.8-.8,.32-.8,.58,0,.79,.58-.4,1.21-.61,1.9-.63-.07,.37,.03,.69,.32,.95,1.67,1.36,3.46,2.57,5.38,3.64,1.01,.42,2.06,.58,3.16,.47v-1.27c-1.64-.4-3.12-1.14-4.43-2.21-.66-.5-1.14-1.13-1.42-1.9-.75,.3-1.54,.4-2.37,.32v-1.27c-.66,.09-1.3,0-1.9-.32-2.19-2.18-4.72-3.87-7.59-5.06-.99-1.23-2.26-1.97-3.8-2.21v-1.27h-2.53v-1.27c.63,.05,1.16-.16,1.58-.63,10.19,6.38,20.52,12.97,31,19.77,.27,.32,.37,.69,.32,1.11,.66-.09,1.3,0,1.9,.32,1.75,1.06,3.54,2.07,5.38,3.01,.22,.53,.53,1.01,.95,1.42,3.22,2.02,6.49,3.82,9.81,5.38Z"/>
    <path class="cls-20" d="M404.96,725.82c.63,.58,1.32,1.1,2.06,1.58,.4-.08,.71-.29,.95-.63,.1,.21,.21,.42,.32,.63,.32-.27,.69-.37,1.11-.32,.42,.84,.42,1.69,0,2.53,.97,.07,1.76,.49,2.37,1.27,.27-.29,.59-.29,.95,0,.85,.64,1.69,1.27,2.53,1.9,.3-.13,.51-.34,.63-.63,1.05,.82,2.21,1.77,3.48,2.85,.13-.15,.29-.25,.47-.32,2.01,1.74,4.22,3.17,6.64,4.27,1.74,1.5,3.64,2.76,5.69,3.8-.26,.1-.46,.26-.63,.47,.72,.26,1.46,.41,2.21,.47,.19,.58,.4,1.16,.63,1.74,.23-.26,.49-.47,.79-.63,1.42,.26,2.53,1,3.32,2.21-.17,.22-.38,.38-.63,.47,2.32,.42,4.43,1.37,6.33,2.85-.26,.1-.46,.26-.63,.47,.52,.37,1.04,.37,1.58,0,.78,.88,1.73,1.52,2.85,1.9l-.63,.63c.83,.26,1.67,.42,2.53,.47,1.91,1.48,3.91,2.8,6.01,3.95-.39,.25-.81,.4-1.27,.47,.89,.39,1.83,.6,2.85,.63,.46,.43,.88,.9,1.27,1.42,.61,.26,1.24,.41,1.9,.47-.42,.21-.42,.42,0,.63,.7,.18,1.33,.44,1.9,.79-7.19-1.35-14.26-3.14-21.19-5.38-3.32-1.56-6.59-3.35-9.81-5.38-.42-.41-.73-.89-.95-1.42-1.83-.94-3.63-1.94-5.38-3.01-.6-.31-1.23-.41-1.9-.32,.05-.42-.05-.79-.32-1.11-10.48-6.8-20.81-13.39-31-19.77-.42,.47-.95,.69-1.58,.63v1.27h2.53v1.27c1.54,.24,2.81,.98,3.8,2.21,2.88,1.19,5.41,2.88,7.59,5.06,.6,.31,1.23,.41,1.9,.32v1.27c.83,.09,1.62-.02,2.37-.32,.29,.77,.76,1.4,1.42,1.9,1.31,1.08,2.79,1.82,4.43,2.21v1.27c-1.1,.1-2.15-.06-3.16-.47-1.91-1.07-3.7-2.28-5.38-3.64-.28-.26-.39-.58-.32-.95-.69,.03-1.32,.24-1.9,.63-.8-.21-.8-.47,0-.79-1.92-1.4-3.93-2.66-6.01-3.8-.27-.32-.37-.69-.32-1.11-.86-.17-1.71-.43-2.53-.79-2.3-1.46-4.52-3.04-6.64-4.74-.56-.06-1.08-.22-1.58-.47,.84-.21,1.69-.42,2.53-.63-2.55-.16-5.08-.43-7.59-.79,.84-.1,1.69-.21,2.53-.32-.84-.21-.84-.42,0-.63-1.09-.21-2.14-.47-3.16-.79-1.09-.12-1.88,.31-2.37,1.27-1.96-.61-4.02-.82-6.17-.63,1.51-.43,3.09-.7,4.74-.79,9.46-.72,18.74,.07,27.84,2.37Z"/>
    <path class="cls-60" d="M628.28,726.45c3.47-.27,5.32,1.32,5.54,4.74-1.59,3.83-4.07,4.52-7.43,2.06-1.7-2.94-1.07-5.2,1.9-6.8Z"/>
    <path class="cls-85" d="M404.96,725.82c1.69,.35,3.37,.72,5.06,1.11,11.39,3.64,22.36,8.23,32.9,13.76,1.32,.92,2.8,1.61,4.43,2.06,1.15,1.81,2.73,2.39,4.74,1.74,3.31,.58,6.58,1.32,9.81,2.21v1.27h1.9v1.27c.87-.1,1.71,0,2.53,.32,.47,.42,.69,.95,.63,1.58,1.02,.34,2.08,.55,3.16,.63v1.27h1.9v1.27c1.57-.26,2.41,.37,2.53,1.9,.87-.1,1.71,0,2.53,.32,.47,.42,.69,.95,.63,1.58,2.01,.86,4.01,1.76,6.01,2.69-.24,.43-.08,.8,.47,1.11,.54-.29,1.12-.39,1.74-.32-2.55,1.38-5.29,2.22-8.22,2.53-5.18,.03-10.24-.6-15.18-1.9-.56-.35-1.2-.61-1.9-.79-.42-.21-.42-.42,0-.63-.66-.06-1.29-.22-1.9-.47-.38-.52-.8-1-1.27-1.42-1.01-.03-1.96-.24-2.85-.63,.46-.07,.88-.23,1.27-.47-2.1-1.15-4.1-2.47-6.01-3.95-.86-.06-1.71-.22-2.53-.47l.63-.63c-1.12-.38-2.07-1.02-2.85-1.9-.54,.37-1.06,.37-1.58,0,.17-.22,.38-.38,.63-.47-1.9-1.48-4.01-2.43-6.33-2.85,.26-.1,.46-.26,.63-.47-.79-1.21-1.9-1.95-3.32-2.21-.3,.16-.56,.38-.79,.63-.23-.58-.44-1.16-.63-1.74-.76-.06-1.5-.22-2.21-.47,.17-.22,.38-.38,.63-.47-2.05-1.03-3.95-2.3-5.69-3.8-2.42-1.1-4.63-2.53-6.64-4.27-.19,.07-.34,.17-.47,.32-1.27-1.08-2.43-2.03-3.48-2.85-.12,.29-.33,.5-.63,.63-.84-.63-1.68-1.26-2.53-1.9-.36-.29-.68-.29-.95,0-.61-.77-1.4-1.2-2.37-1.27,.42-.84,.42-1.69,0-2.53-.42-.05-.79,.05-1.11,.32-.1-.21-.21-.42-.32-.63-.23,.34-.55,.55-.95,.63-.74-.48-1.43-1.01-2.06-1.58Z"/>
    <path class="cls-69" d="M379.02,734.67c-7.57-1-15.16-1.16-22.78-.47-2.89,.43-5.74,1.06-8.54,1.9-3.87,1.27-7.66,2.7-11.39,4.27,1.28-1.33,2.76-2.44,4.43-3.32,3.24-1.82,6.51-3.56,9.81-5.22,.8,.02,1.53-.19,2.21-.63,.85,.55,1.06,.4,.63-.47,1.72-.61,3.4-1.29,5.06-2.06,.21,.05,.42,.1,.63,.16-.3,.23-.35,.49-.16,.79,.54-.44,.96-.96,1.27-1.58,.23,.36,.5,.36,.79,0,2.42,1.56,4.84,3.09,7.28,4.59,3.63,.68,7.22,1.37,10.76,2.06Z"/>
    <path class="cls-81" d="M533.39,754.92c-11.09,.02-22.06,1.18-32.9,3.48-.26-.53-.15-1.05,.32-1.58,.47,.71,1.1,.97,1.9,.79-2.07-1.38-4.18-2.7-6.33-3.95l-.63,.63c-.3-.77-.72-1.45-1.27-2.06-1.18-.57-2.23-1.31-3.16-2.21-1.01-.27-1.91-.74-2.69-1.42-.16,.32-.43,.53-.79,.63l-1.9-.95c.39-.25,.81-.4,1.27-.47-2.19-1.45-4.4-2.88-6.64-4.27l-.63,.63c-.69-.82-1.53-1.4-2.53-1.74,.21-.1,.42-.21,.63-.32-.38-.22-.69-.48-.95-.79,4.12-2.38,7.92-5.23,11.39-8.54,1.01-.16,1.74-.69,2.21-1.58,.35,.49,.25,.91-.32,1.27,.28,.34,.6,.34,.95,0,.23,.53,.55,1.01,.95,1.42,2.32,1.37,4.64,2.74,6.96,4.11,1.54,1.03,3.02,2.14,4.43,3.32,2.4,1.04,4.72,2.2,6.96,3.48,.08-.62-.03-1.2-.32-1.74-2.09-.73-3.89-1.95-5.38-3.64-.98-.18-1.82-.6-2.53-1.27-.6-.31-1.23-.41-1.9-.32v-1.27c-.84-.21-1.69-.42-2.53-.63v-1.27c-1.66-.52-3.25-1.2-4.74-2.06-.95-.53-1.58-1.16-1.9-1.9,.6-.98,1.44-1.3,2.53-.95,.46,.76,.88,1.55,1.27,2.37l.63-.63c.7,.97,1.65,1.4,2.85,1.27v1.27h1.9v1.27c1.64,.4,3.12,1.14,4.43,2.21,.6,.31,1.23,.41,1.9,.32v1.27c1.57-.26,2.41,.37,2.53,1.9,1.57-.26,2.41,.37,2.53,1.9,.66-.27,1.3-.27,1.9,0,1.38,.79,2.64,1.74,3.8,2.85,.96,.64,2.02,.96,3.16,.95v1.27h1.9v1.27c.66-.09,1.3,0,1.9,.32,.66,.88,1.51,1.51,2.53,1.9,.47,.42,.69,.95,.63,1.58,.64-.05,1.27,0,1.9,.16,1.1,1.02,2.36,1.6,3.8,1.74Z"/>
    <path class="cls-53" d="M523.9,735.31c2.19,.34,3.09,1.61,2.69,3.8-.93,1.2-2.15,1.56-3.64,1.11-1.86-2.05-1.54-3.69,.95-4.9Z"/>
    <path class="cls-66" d="M770,735.94c2.96-.16,3.59,.94,1.9,3.32-1.55,.53-2.5,0-2.85-1.58,.2-.66,.51-1.24,.95-1.74Z"/>
    <path class="cls-36" d="M442.92,740.68c3.12,1.2,6.29,2.31,9.49,3.32,5.55,1.57,11.13,1.77,16.77,.63,2.71-.94,5.35-2.04,7.91-3.32,.26,.31,.57,.57,.95,.79-.21,.1-.42,.21-.63,.32,1,.34,1.84,.92,2.53,1.74l.63-.63c2.24,1.4,4.45,2.82,6.64,4.27-.46,.07-.88,.23-1.27,.47l1.9,.95c.36-.1,.63-.31,.79-.63,.78,.68,1.68,1.15,2.69,1.42,.93,.91,1.99,1.65,3.16,2.21,.54,.61,.96,1.29,1.27,2.06l.63-.63c2.15,1.26,4.26,2.57,6.33,3.95-.8,.18-1.43-.08-1.9-.79-.46,.53-.57,1.06-.32,1.58-4.87,.99-9.72,2.04-14.55,3.16-.62-.08-1.2,.03-1.74,.32-.56-.31-.71-.68-.47-1.11-2-.93-4-1.83-6.01-2.69,.05-.63-.16-1.16-.63-1.58-.82-.31-1.66-.41-2.53-.32-.12-1.52-.96-2.16-2.53-1.9v-1.27h-1.9v-1.27c-1.09-.08-2.14-.29-3.16-.63,.05-.63-.16-1.16-.63-1.58-.82-.31-1.66-.41-2.53-.32v-1.27h-1.9v-1.27c-3.23-.9-6.5-1.64-9.81-2.21-2.02,.65-3.6,.07-4.74-1.74-1.63-.45-3.11-1.13-4.43-2.06Z"/>
    <path class="cls-76" d="M501.44,741.95c1.75-.26,2.8,.48,3.16,2.21-1.04,1.62-2.36,1.94-3.95,.95-.6-1.24-.34-2.29,.79-3.16Z"/>
    <path class="cls-3" d="M757.66,741c1.85-.49,2.91,.2,3.16,2.06-.26,1.91-1.31,2.54-3.16,1.9-1.64-1.39-1.64-2.7,0-3.95Z"/>
    <path class="cls-57" d="M284.75,746.38c3.62,.07,4.94,1.87,3.95,5.38-2.23,2.2-4.34,2.09-6.33-.32-.21-.95-.21-1.9,0-2.85,.64-.92,1.43-1.66,2.37-2.21Z"/>
    <path class="cls-8" d="M671.94,749.54c6.44-.08,9.55,3.08,9.33,9.49-1.67,4.94-5.1,7.21-10.28,6.8-6.03-2.87-7.45-7.25-4.27-13.13,1.49-1.51,3.23-2.56,5.22-3.16Z"/>
    <path class="cls-38" d="M294.88,765.36c-.14,.5-.45,.87-.95,1.11-1.03,.06-1.93,.43-2.69,1.11-.34-.19-.7-.29-1.11-.32-1.95,.62-3.95,.94-6.01,.95,3.6-.74,7.19-1.69,10.76-2.85Z"/>
    <path class="cls-51" d="M283.49,768.2c-.04,.2-.14,.35-.32,.47-1.16,.16-2.31,.21-3.48,.16,1.21-.31,2.47-.52,3.8-.63Z"/>
    <path class="cls-104" d="M206.16,574.4l.04-32.34,15.54,.03,.05,32.36-15.63-.05Z"/>
    <path class="cls-107" d="M423.54,484.08l-.2-.18c-3.44-3.01-7.82-5.36-11.5-8.19-2.11-1.62-3.72-3.8-5.78-5.39l.48-.54,.6-.03c.67-2.24,.69-4.86,.88-7.19,2.91,4.12,6.23,7.07,11.37,7.98,4.27,.76,9.01,.34,12.63-2.24,3.47-2.48,5.26-5.96,6.83-9.79,.15,2.46,0,8.46,1.24,10.47,.26,.42,1,.99,1.37,1.35-3.57,3.58-7.71,6.97-11.84,9.88-1.81,1.28-4.21,2.32-5.79,3.82l-.28,.05Z"/>
    <path class="cls-104" d="M228.46,568.81l-.16-44.1,14.99-.15-.09,43.95-14.74,.3Z"/>
    <path class="cls-105" d="M280.25,456.31l.99,.26-2.64,14.15c-.61-.41-5.86-4.07-5.95-4.05-.88,.19-3.93,3.35-4.78,4.11l-25.93,24.25c-6.08,5.35-12.44,10.25-18.99,15.02-14.31,10.43-30.1,17.71-46.71,23.67-25.41,9.12-51.82,14.38-78.68,16.79v-11.67c-.06-.94,.05-1.3,.47-2.14l2.35-.05c1.18,1.33,.59,8.1,.6,10.23,46.65-5.44,93.26-17.02,130.35-47.4,10.31-8.44,17.4-17.77,37.99-34.5l-6.08-3.5,17.01-5.18Z"/>
    <path class="cls-105" d="M400.79,435.55c-1.76-3.1-2.52-7.23-2.78-10.75,1.2-1.61,2.67-.6,3.85-1.92-1.28-.41-2.36-.48-3.1-1.73-1.18-1.99-1.38-6.55-.84-8.75,.61-2.45,1.64-.79,2.86-1.58,.99-.64,1.26-2.2,2.67-2.95l.26-.13c.21-.51,.44-1.02,.75-1.48,.6-.88,1.78-1.45,2.67-1.99,3.05-1.83,6.34-3.63,9.88-4.22,2.31-.38,4.69-.13,7-.5,1.29-.21,2.48-.97,3.74-1.14,2.64-.36,1.75,1.18,2.98,2.2,.33,.28,2.23,.52,2.77,.65,3.13,.73,6.19,1.29,8.78,3.34,1.11,.88,2.14,2.23,2.21,3.7,.05,1.09-.44,1.85-1.09,2.64l-.2,.24c.5,2.02,2.52,3.75,3.52,5.62,3.39,6.35,.44,11.97-1.47,18.3-.79,1.49-2.07,2.06-2.6,3.73l-.42,.2-.42-2.06c-1.79-1.95-.14-6.76-.23-9.3-.09-2.29-1.21-4.39-2.92-5.88-.54-.47-2.65-1.7-3.3-1.34-.31,.16-.9,.99-1.17,1.28-1.4,1.49-2.4,2.34-4.53,2.51-4.3,.33-8.06-3.49-12.08-2.98-.93,.12-1.63,1.49-2.19,2.21-1.55,.06-2.47-1.03-3.88-1.13-4.86-.33-4.35,7.79-5.47,10.76-.59,1.56-1.58,2.66-2.72,3.85-.41,.12-.71,.15-1.13,.17l-1.39-1.54Z"/>
    <path class="cls-105" d="M432.07,540.13l.15,7.53c2.6-9.09,3.97-18.41,5.36-27.74l5.67-48.09,7.76,5.94,1.27,.56c.78,4.11,2.74,11.8,.23,15.48-.31,.45-.52,.83-.73,1.33l2.72,2.75c-1.81,8.26-4.37,16.25-7.05,24.26-3.05,9.12-6.39,18.36-10.69,26.98-.88,1.76-2.05,4.75-3.45,6.1-.43,.44-.6,.63-1.23,.77l-7.02-.08-.06-.14-4.08-.31c-.89-1.32-1.47-3.7-1.9-5.25-.73-2.64-1.85-5-2.42-7.75-.44-1.48-.23-3.8-.3-5.39-.28-5.44,.58-11.38,1.09-16.82l2.66-26.36-6.2-1.79c2.85-2.98,6.26-5.7,9.67-8.03l.28-.05c3.66,2.05,6.97,5.06,9.97,7.97l-6.94,1.81,4.05,30.84c.54,5.1,1.25,10.38,1.16,15.5Z"/>
    <path class="cls-105" d="M271.32,529.47c4.49,.12,10.06-.54,14.37,.27l.06,7-14.45-.04,.02-7.23Z"/>
    <path class="cls-105" d="M228.46,556.58l14.74-.3,.06,7.5-14.76,.06-.04-7.25Z"/>
    <path class="cls-105" d="M206.16,562.18l15.63,.05,.02,7.8-15.71-.03,.06-7.81Z"/>
    <path class="cls-108" d="M452.29,478.34c10.24,3.51,20.66,7.19,30.46,11.82,2.32,1.1,4.95,2.09,7.08,3.51,6.46,14.71,9.8,31.67,12.27,47.5,1.61,10.27,4.05,22.14,.18,32.15-2.03,5.26-5.92,9.63-11.16,11.81-3.55,1.48-19.45-.1-20.93,1.35l-.2,.67-.7-1.04c-7.66,.28-15.42-.27-23.08-.66-3.59-.18-7.27-.03-10.82-.63-1.31,.01-2.51-.06-3.8-.28-1.11-.52-2.6-.42-3.82-.48l-8.7-.36c-.54-1.51-.23-3.44-1.19-4.69l-.14-.17c.04-1.76-.29-3.62-.47-5.38-.69-.01-2.25-.25-2.84-.05-1.82,.61-1.87,1.39-4.05,1.25,1.62-.45,2.66-1.14,3.97-2.17l2.91,.33,.55-.5-2.4-16.3,4.16-.05c1.62,0,3.95,.33,5.49-.03l7.02,.08c.62-.14,.8-.33,1.23-.77,1.4-1.35,2.57-4.34,3.45-6.1,4.3-8.62,7.64-17.85,10.69-26.98,2.68-8.01,5.23-16,7.05-24.26l-2.72-2.75c.2-.5,.42-.89,.73-1.33,2.52-3.68,.55-11.37-.23-15.48Z"/>
    <path class="cls-106" d="M432.55,574.61c.33-.05,.72-.12,1.06-.07,.94,.15,1.21,.51,1.72,1.22,.02,1.29,.02,1.35-.77,2.36-.66,.44-1.14,.45-1.92,.49l-.77-.89c-.05-1.44-.14-1.84,.67-3.1Z"/>
    <path class="cls-103" d="M426.86,572.3l1.37,.11c.78,.85,1.28,1.32,1.11,2.58-.16,1.24-.73,1.54-1.69,2.13-.73,.03-1.13-.03-1.82-.29-.68-.89-.83-1.12-1-2.22,.61-1.34,.85-1.54,2.03-2.3Z"/>
    <path class="cls-105" d="M419.09,583.7l8.7,.36c1.22,.07,2.72-.04,3.82,.48,1.29,.22,2.49,.29,3.8,.28,3.55,.59,7.23,.44,10.82,.63,7.66,.39,15.41,.94,23.08,.66l.7,1.04,.09,.34,2.35,16.06c1.02,.56,1.22,.53,1.61,1.6-.24,.5-.43,.98-.83,1.37-.78,1.63-.04,4.53,.1,6.4l1.17,18.82c.12,2.86,.57,6.39-.32,9.13-.67,2.11-2.21,2.92-3.38,4.61l.17,2.26c1.08,.64,2.67,.4,3.93,.4l10.52,.03c1.68,0,3.37-.28,4.83,.57l.25,1.15-.64,.81-127.08,.18-.66-.79,.17-1.11c2.14-1.54,12.24,.5,13.64-.93,.47-.48,.59-1.82,.72-2.49-1.04-.34-2.01-.79-2.73-1.63-3-3.49,1.95-31.42,2.45-37.56l-1.03-1.03,.27-1.65c.68-1.62,.74-3.7,1-5.44l1.53-9.73,.4-.45c1.51-.07,2.55-.05,3.95,.57,10.96,1,21.77,3.56,32.44,6.21l1.59,.14,1.63-5.47c.76-1.26,.82-4.31,.95-5.82Z"/>
    <path class="cls-103" d="M419.09,583.7l8.7,.36c1.22,.07,2.72-.04,3.82,.48l-5.25,4.02-5.19,4.11-3.03-3.16c.76-1.26,.82-4.31,.95-5.82Z"/>
    <path class="cls-102" d="M398.39,476.47l5.3-3.64c1.19,18.08,5,36.51,8.76,54.21l2.1,8.89c.33,1.28,.52,2.75,1.25,3.87l.52-2.73c.06,1.59-.14,3.92,.3,5.39,.57,2.75,1.69,5.1,2.42,7.75,.43,1.56,1.01,3.94,1.9,5.25l4.08,.31,.06,.14c-1.53,.36-3.87,.04-5.49,.03l-4.16,.05,2.4,16.3-.55,.5-2.91-.33c-1.31,1.04-2.35,1.73-3.97,2.17,2.18,.14,2.23-.63,4.05-1.25,.59-.2,2.15,.04,2.84,.05,.18,1.76,.51,3.61,.47,5.38l.14,.17c.96,1.26,.65,3.18,1.19,4.69-.13,1.51-.2,4.56-.95,5.82l-1.63,5.47-1.59-.14c-10.67-2.64-21.48-5.2-32.44-6.21-1.4-.62-2.44-.65-3.95-.57l-.4,.45c-1.95-.77-5.27-.56-7.4-.66l-16.13-.71c-2.72-.51-4.36-1.01-6.35-2.96-.25-.25-.96-1.12-1.21-1.22-.84-.32-3.57-.05-4.61-.11l-.32-1.2c.89-.56,3.03-.42,4.11-.47-4.31-16.79,.33-35.82,3.31-52.49,1.62-9.04,2.98-19.04,6.65-27.52,3.13-7.23,8.6-9.88,15.32-13.07,6.11-2.9,12.41-5.18,18.68-7.68l.4-.16c.9-.15,1.86-.53,2.74-.8l2.28-1.15,.36-.15,.25-.25c.72-.5,1.45-.88,2.17-1.44Z"/>
    <path class="cls-107" d="M398.39,476.47l5.3-3.64c1.19,18.08,5,36.51,8.76,54.21l2.1,8.89c.33,1.28,.52,2.75,1.25,3.87l.52-2.73c.06,1.59-.14,3.92,.3,5.39,.57,2.75,1.69,5.1,2.42,7.75,.43,1.56,1.01,3.94,1.9,5.25l4.08,.31,.06,.14c-1.53,.36-3.87,.04-5.49,.03-.6-.12-1.52-.05-1.98-.44-1.77-1.55-11.48-18.67-11.49-20.63l.03-.23c-.31-.49-1.06-1.56-1.1-2.11-.03-.49,.35-1.09,.32-1.54-.02-.29-.57-1.02-.68-1.4-1.22-4.23-3.77-8.14-4.88-12.43-.64-2.48-1.82-5.21-2.69-7.68-.29-.83-.3-1.92-.78-2.64-.42-.64-.3-2.04-.57-2.74-.75-1.95-1.15-3.76-1.15-5.95l3.46-3.46c-.47-.53-.87-.96-1.52-1.26-.84-.39-1.55-.92-2.31-1.43-.01-1.21-.2-2.84,.08-4,.48-1.98,.74-4.78,1.54-6.59l.2-.46c.34-.94,.3-1.9-.1-2.8l.25-.25c.72-.5,1.45-.88,2.17-1.44Z"/>
    <path class="cls-103" d="M382.12,544.76c5.83-.16,13.16,3.22,17.3,7.18l5.38,6.03c1.15-.2,1.26-.91,2.11-1.53,1.37-.99,6.68-.46,8.51-.43l2.4,16.3-.55,.5-2.91-.33c-1.31,1.04-2.35,1.73-3.97,2.17-1.26-.15-2.71-.28-3.87-.83-1.27-.61-1.71-1.59-2.14-2.85l-.47,.03c-2.14,0-4.57-.66-6.69-1.09-5.31-1.09-10.35-2.49-15.49-4.22-1.88-.63-4.95-1.37-6.31-2.86-1.08-1.18-.88-2.29-.88-3.76,.67-.45,1.25-.77,2.04-.99,.69-.19,1.3-.42,1.95-.72-1.31-.79-1.88-1.32-2.48-2.74,.02-1.16,.13-1.75,.82-2.69,1.54-1.25,3.57-1.25,5.46-1.45-.59-.46-1.44-.72-2.14-1.01-.67-1.26-.73-1.4-.55-2.81,.69-1.15,1.27-1.45,2.46-1.92Z"/>
  </g>
</svg>